<svg width="150" height="150" viewBox="0 0 150 150" fill="none" xmlns="http://www.w3.org/2000/svg">
<path d="M95.2014 74.1337V40.0031C98.1208 39.4096 100.325 36.8227 100.325 33.7307V29.3558C100.325 25.8264 97.4537 22.955 93.9243 22.955H93.6161C94.3271 22.4382 95.006 21.8637 95.6423 21.2274C99.7972 17.0722 101.443 11.1803 100.045 5.46593C99.8637 4.72296 99.2836 4.14288 98.5406 3.96124C92.8263 2.5629 86.9344 4.20939 82.7792 8.36427C81.6442 9.49952 80.6976 10.7649 79.9479 12.1201C79.1982 10.7649 78.2519 9.49923 77.117 8.36427C72.9615 4.20909 67.0693 2.5632 61.3556 3.96124C60.6126 4.14288 60.0328 4.72296 59.8509 5.46593C58.4528 11.18 60.099 17.0722 64.2539 21.2274C64.8902 21.8637 65.569 22.4385 66.2798 22.955H65.9716C62.4422 22.955 59.5708 25.8264 59.5708 29.3558V33.7307C59.5708 36.823 61.7751 39.4099 64.6945 40.0031V74.1337C58.2981 76.9538 52.834 81.4696 48.8311 87.2599C44.458 93.5857 42.1468 101.008 42.1468 108.726C42.1468 129.57 59.1041 146.527 79.9476 146.527C100.791 146.527 117.749 129.57 117.749 108.726C117.749 101.008 115.437 93.5854 111.064 87.2599C107.062 81.4693 101.598 76.9538 95.2014 74.1337ZM85.6796 11.2647C88.5073 8.43663 92.4023 7.1505 96.3044 7.70216C96.8563 11.6036 95.5699 15.4992 92.7419 18.327C89.9139 21.1547 86.0185 22.4414 82.1168 21.8895C82.0526 21.4354 82.0157 20.9816 82.0008 20.5295C82.0081 20.2409 82.0081 19.9529 82.0005 19.6658C82.1127 16.5416 83.3906 13.5533 85.6796 11.2647ZM63.5918 7.70216C67.4935 7.15079 71.3891 8.43663 74.2169 11.2647C76.5056 13.5536 77.7838 16.5419 77.8957 19.6667C77.8881 19.9535 77.8881 20.2409 77.8954 20.5289C77.8805 20.9813 77.8435 21.4354 77.7794 21.8898C73.8776 22.442 69.9823 21.155 67.1546 18.3273C64.3263 15.4989 63.0401 11.6036 63.5918 7.70216ZM63.6726 33.7304V29.3555C63.6726 28.0878 64.7042 27.0563 65.9719 27.0563H93.924C95.192 27.0563 96.2232 28.0878 96.2232 29.3555V33.7304C96.2232 34.9984 95.1917 36.0296 93.924 36.0296H65.9719C64.7042 36.0299 63.6726 34.9984 63.6726 33.7304ZM79.9479 142.426C61.3661 142.426 46.2486 127.308 46.2486 108.726C46.2486 94.8322 54.5918 82.5372 67.5035 77.4029C68.2843 77.0924 68.7967 76.3374 68.7967 75.4975V70.2489H72.1626C73.2952 70.2489 74.2134 69.3308 74.2134 68.1982C74.2134 67.0655 73.2952 66.1474 72.1626 66.1474H68.7967V59.9927H77.3478C78.4805 59.9927 79.3986 59.0745 79.3986 57.9419C79.3986 56.8093 78.4805 55.8911 77.3478 55.8911H68.7967V49.7364H72.1626C73.2952 49.7364 74.2134 48.8183 74.2134 47.6857C74.2134 46.553 73.2952 45.6349 72.1626 45.6349H68.7967V40.1315H91.0998V75.4975C91.0998 76.3377 91.6122 77.0927 92.393 77.4029C105.305 82.5372 113.648 94.8322 113.648 108.726C113.648 127.308 98.5301 142.426 79.9479 142.426ZM30.7169 113.637L26.695 109.741L30.7166 105.844C39.9685 96.881 44.8588 86.2169 44.8588 75.005C44.8588 63.7931 39.9685 53.129 30.7166 44.1656L26.695 40.2694L30.7169 36.373C39.9688 27.4099 44.8591 16.7458 44.8591 5.53361C44.8591 4.40099 43.9409 3.48282 42.8083 3.48282C41.6757 3.48282 40.7575 4.40099 40.7575 5.53361C40.7575 10.8073 39.5338 15.9624 37.1599 20.8509H10.3356C7.96171 15.9624 6.73798 10.8073 6.73798 5.53361C6.73798 4.40099 5.81981 3.48282 4.68719 3.48282C3.55458 3.48282 2.63641 4.40099 2.63641 5.53361C2.63641 16.7458 7.52665 27.4099 16.7786 36.373L20.8005 40.2694L16.7786 44.1656C7.52665 53.129 2.63641 63.7931 2.63641 75.005C2.63641 86.2169 7.52665 96.881 16.7786 105.844L20.8005 109.741L16.7786 113.637C7.52665 122.6 2.63641 133.264 2.63641 144.476C2.63641 145.609 3.55458 146.527 4.68719 146.527C5.81981 146.527 6.73798 145.609 6.73798 144.476C6.73798 139.203 7.96171 134.047 10.3356 129.159H37.1599C39.5338 134.047 40.7575 139.203 40.7575 144.476C40.7575 145.609 41.6757 146.527 42.8083 146.527C43.9409 146.527 44.8591 145.609 44.8591 144.476C44.8591 133.264 39.9685 122.6 30.7169 113.637ZM6.80155 77.0555H40.6936C40.4183 81.6144 39.225 86.069 37.1596 90.3217H10.3353C8.2705 86.0693 7.07694 81.6144 6.80155 77.0555ZM40.6939 72.9539H6.80155C7.07694 68.395 8.2702 63.9404 10.3356 59.6877H37.1599C39.225 63.9404 40.4185 68.395 40.6939 72.9539ZM19.6327 33.4269C16.8677 30.7483 14.533 27.9106 12.6395 24.9519H34.8562C32.9628 27.9103 30.6281 30.748 27.8631 33.4269L23.748 37.4136L19.6327 33.4269ZM19.6327 47.1111L23.7477 43.1244L27.8628 47.1111C30.6278 49.7898 32.9625 52.6277 34.8562 55.5861H12.6395C14.533 52.6277 16.8677 49.7898 19.6327 47.1111ZM19.6327 102.899C16.8677 100.22 14.533 97.3819 12.6395 94.4236H34.8562C32.9628 97.3819 30.6278 100.22 27.8628 102.899L23.7477 106.885L19.6327 102.899ZM12.6392 125.058C14.5327 122.099 16.8677 119.261 19.6327 116.583L23.7477 112.596L27.8628 116.583C30.6278 119.261 32.9625 122.099 34.8559 125.058H12.6392ZM89.9347 91.2782C89.9347 85.7719 85.4546 81.2921 79.9482 81.2921C74.4419 81.2921 69.9618 85.7719 69.9618 91.2782C69.9618 96.7846 74.4419 101.265 79.9482 101.265C85.4546 101.265 89.9347 96.7846 89.9347 91.2782ZM74.0634 91.2782C74.0634 88.0333 76.7033 85.3937 79.9482 85.3937C83.1932 85.3937 85.8331 88.0336 85.8331 91.2782C85.8331 94.5232 83.1932 97.1631 79.9482 97.1631C76.7033 97.1631 74.0634 94.5232 74.0634 91.2782ZM65.5257 103.815C61.5539 103.815 58.3227 107.046 58.3227 111.018C58.3227 114.989 61.5539 118.22 65.5257 118.22C69.4972 118.22 72.7283 114.989 72.7283 111.018C72.7283 107.046 69.4972 103.815 65.5257 103.815ZM65.5257 114.119C63.8156 114.119 62.4243 112.728 62.4243 111.018C62.4243 109.308 63.8156 107.917 65.5257 107.917C67.2357 107.917 68.6267 109.308 68.6267 111.018C68.6267 112.728 67.2357 114.119 65.5257 114.119ZM96.8344 99.4787C92.8626 99.4787 89.6314 102.71 89.6314 106.681C89.6314 110.653 92.8626 113.884 96.8344 113.884C100.806 113.884 104.037 110.653 104.037 106.681C104.037 102.71 100.806 99.4787 96.8344 99.4787ZM96.8344 109.783C95.1243 109.783 93.733 108.391 93.733 106.682C93.733 104.972 95.1243 103.581 96.8344 103.581C98.5444 103.581 99.9354 104.972 99.9354 106.682C99.9354 108.391 98.5444 109.783 96.8344 109.783ZM87.8036 115.186C83.1829 115.186 79.4235 118.945 79.4235 123.566C79.4235 128.186 83.1829 131.946 87.8036 131.946C92.4243 131.946 96.1837 128.186 96.1837 123.566C96.1837 118.945 92.4243 115.186 87.8036 115.186ZM87.8036 127.844C85.4443 127.844 83.5251 125.925 83.5251 123.565C83.5251 121.206 85.4443 119.287 87.8036 119.287C90.1629 119.287 92.0821 121.206 92.0821 123.565C92.0821 125.925 90.1629 127.844 87.8036 127.844ZM140.161 55.5671C136.902 55.5671 134.143 57.7439 133.257 60.7193H129.023C128.706 58.8193 127.957 57.0648 126.88 55.5589L131.243 51.1954C132.264 51.7509 133.433 52.0667 134.675 52.0667C138.646 52.0667 141.877 48.8356 141.877 44.8641C141.877 40.8923 138.646 37.6611 134.675 37.6611C130.703 37.6611 127.472 40.8923 127.472 44.8641C127.472 46.1054 127.788 47.2746 128.343 48.2953L123.98 52.6591C122.474 51.5821 120.72 50.8327 118.82 50.5154V29.7422C121.795 28.8566 123.971 26.0977 123.971 22.8387C123.971 18.8669 120.74 15.6358 116.769 15.6358C112.797 15.6358 109.566 18.8672 109.566 22.8387C109.566 26.098 111.742 28.8571 114.718 29.7425V50.5149C108.838 51.4954 104.341 56.6159 104.341 62.7697C104.341 69.6223 109.916 75.1969 116.768 75.1969C117.34 75.1969 117.903 75.1547 118.455 75.0794L127.077 102.763C125.153 104.058 123.885 106.255 123.885 108.743C123.885 112.714 127.116 115.945 131.088 115.945C135.059 115.945 138.29 112.714 138.29 108.743C138.29 104.771 135.059 101.54 131.088 101.54C131.056 101.54 131.024 101.542 130.992 101.542L122.37 73.8574C125.831 72.1017 128.363 68.7753 129.023 64.8208H133.257C134.143 67.7962 136.902 69.9727 140.161 69.9727C144.132 69.9727 147.363 66.7415 147.363 62.7697C147.364 58.7983 144.132 55.5671 140.161 55.5671ZM134.189 108.743C134.189 110.453 132.798 111.844 131.088 111.844C129.378 111.844 127.987 110.453 127.987 108.743C127.987 107.033 129.378 105.642 131.088 105.642C132.798 105.642 134.189 107.033 134.189 108.743ZM134.675 41.7624C136.385 41.7624 137.776 43.1537 137.776 44.8638C137.776 46.5738 136.384 47.9649 134.675 47.9649C132.965 47.9649 131.573 46.5735 131.573 44.8638C131.573 43.1534 132.965 41.7624 134.675 41.7624ZM113.667 22.8387C113.667 21.1286 115.058 19.7373 116.768 19.7373C118.478 19.7373 119.869 21.1286 119.869 22.8387C119.869 24.5487 118.478 25.9398 116.768 25.9398C115.058 25.9398 113.667 24.5487 113.667 22.8387ZM116.768 71.0953C112.177 71.0953 108.443 67.3603 108.443 62.7697C108.443 58.1792 112.177 54.4444 116.768 54.4444C121.359 54.4444 125.094 58.1792 125.094 62.7697C125.094 67.3606 121.359 71.0953 116.768 71.0953ZM140.161 65.8711C138.451 65.8711 137.06 64.4798 137.06 62.7697C137.06 61.06 138.451 59.6687 140.161 59.6687C141.871 59.6687 143.262 61.06 143.262 62.7697C143.262 64.4798 141.871 65.8711 140.161 65.8711Z" fill="#0CB408"/>
</svg>
