<svg width="150" height="150" viewBox="0 0 150 150" fill="none" xmlns="http://www.w3.org/2000/svg">
<path d="M68.1181 138.702H40.8173V147.802H68.1181V138.702Z" stroke="#0CB408" stroke-width="4.39453" stroke-miterlimit="10" stroke-linecap="round" stroke-linejoin="round"/>
<path d="M68.1181 65.8995H40.8173V129.601H68.1181V65.8995Z" stroke="#0CB408" stroke-width="4.39453" stroke-miterlimit="10" stroke-linecap="round" stroke-linejoin="round"/>
<path d="M59.0179 129.601H49.9177V138.702H59.0179V129.601Z" stroke="#0CB408" stroke-width="4.39453" stroke-miterlimit="10" stroke-linecap="round" stroke-linejoin="round"/>
<path d="M14.0464 106.893C15.9829 114.709 23.0435 120.501 31.4604 120.501H40.8179V102.302V84.0996H31.4604C23.1841 84.0996 16.2173 89.7012 14.146 97.3184" stroke="#0CB408" stroke-width="4.39453" stroke-miterlimit="10" stroke-linecap="round" stroke-linejoin="round"/>
<path d="M40.1276 105.785C42.0511 101.141 39.846 95.8173 35.2024 93.8938C30.5589 91.9703 25.2352 94.1754 23.3117 98.819C21.3883 103.463 23.5933 108.786 28.2369 110.71C32.8805 112.633 38.2041 110.428 40.1276 105.785Z" stroke="#0CB408" stroke-width="4.39453" stroke-miterlimit="10" stroke-linecap="round" stroke-linejoin="round"/>
<path d="M68.1185 120.501H77.475C87.3853 120.501 95.4193 112.467 95.4193 102.557V102.044C95.4193 92.1339 87.3855 84.0999 77.475 84.0999H68.1182V120.501H68.1185Z" stroke="#0CB408" stroke-width="4.39453" stroke-miterlimit="10" stroke-linecap="round" stroke-linejoin="round"/>
<path d="M80.7046 110.709C85.3482 108.786 87.5533 103.462 85.6298 98.8185C83.7063 94.175 78.3827 91.9699 73.7391 93.8933C69.0955 95.8168 66.8905 101.14 68.8139 105.784C70.7374 110.428 76.0611 112.633 80.7046 110.709Z" stroke="#0CB408" stroke-width="4.39453" stroke-miterlimit="10" stroke-linecap="round" stroke-linejoin="round"/>
<path d="M59.0179 84.0999H49.9177V120.501H59.0179V84.0999Z" stroke="#0CB408" stroke-width="4.39453" stroke-miterlimit="10" stroke-linecap="round" stroke-linejoin="round"/>
<path d="M49.9177 74.9998H59.0179" stroke="#0CB408" stroke-width="4.39453" stroke-miterlimit="10" stroke-linecap="round" stroke-linejoin="round"/>
<path d="M61.2932 56.799H47.6426V49.8776C47.6426 46.1613 50.6552 43.1484 54.3718 43.1484H54.564C58.2803 43.1484 61.2932 46.161 61.2932 49.8776V56.799Z" stroke="#0CB408" stroke-width="4.39453" stroke-miterlimit="10" stroke-linecap="round" stroke-linejoin="round"/>
<path d="M54.4679 2.19727V43.1487" stroke="#0CB408" stroke-width="4.39453" stroke-miterlimit="10" stroke-linecap="round" stroke-linejoin="round"/>
<path d="M54.4679 56.7991V65.8996" stroke="#0CB408" stroke-width="4.39453" stroke-miterlimit="10" stroke-linecap="round" stroke-linejoin="round"/>
<path d="M131.82 55.626V38.5986H104.518V84.0996V107.449" stroke="#0CB408" stroke-width="4.39453" stroke-miterlimit="10" stroke-linecap="round" stroke-linejoin="round"/>
<path d="M104.518 117.023V134.344C104.518 141.776 110.544 147.803 117.977 147.803H118.361C125.793 147.803 131.82 141.776 131.82 134.344V84.0996V65.2002" stroke="#0CB408" stroke-width="4.39453" stroke-miterlimit="10" stroke-linecap="round" stroke-linejoin="round"/>
<path d="M135.954 29.4982H99.9695V38.5984H135.954V29.4982Z" stroke="#0CB408" stroke-width="4.39453" stroke-miterlimit="10" stroke-linecap="round" stroke-linejoin="round"/>
<path d="M127.27 20.3979H109.07V29.4981H127.27V20.3979Z" stroke="#0CB408" stroke-width="4.39453" stroke-miterlimit="10" stroke-linecap="round" stroke-linejoin="round"/>
<path d="M104.52 84.0999H131.82" stroke="#0CB408" stroke-width="4.39453" stroke-miterlimit="10" stroke-linecap="round" stroke-linejoin="round"/>
</svg>
