<svg xmlns="http://www.w3.org/2000/svg" version="1.1" xmlns:xlink="http://www.w3.org/1999/xlink" width="512" height="512" x="0" y="0" viewBox="0 0 512.54 512.54" style="enable-background:new 0 0 512 512" xml:space="preserve"><g><path d="M482.128 318.124c-29.812-29.812-73.777-37.048-110.468-21.721V119.64c0-7.314-2.848-14.19-8.019-19.361l-92.25-92.261a27.326 27.326 0 0 0-7.398-5.243l-.018-.009c-.125-.061-.25-.122-.376-.181a9.536 9.536 0 0 0-.731-.323A27.453 27.453 0 0 0 252.02 0H29.77C13.813 0 .83 12.982.83 28.94V483.6c0 15.958 12.982 28.94 28.939 28.94h312.95c15.28 0 27.971-11.946 28.892-27.197a9.34 9.34 0 0 0 .019-.603v-2.073a101.335 101.335 0 0 0 39.08 7.826c25.864 0 51.728-9.845 71.418-29.534 19.076-19.077 29.582-44.44 29.582-71.418s-10.506-52.341-29.582-71.417zm-144.61-215.685h-66.082a2.216 2.216 0 0 1-2.213-2.213V34.137zm14.112 381.944c-.403 4.594-4.271 8.157-8.91 8.157H29.77c-4.93 0-8.939-4.01-8.939-8.94V28.94c0-4.93 4.01-8.94 8.939-8.94h219.454v80.226c0 12.248 9.965 22.213 22.213 22.213h80.224v185.16a101.239 101.239 0 0 0-12.368 10.525c-19.076 19.077-29.582 44.44-29.582 71.418s10.506 52.341 29.582 71.418a101.196 101.196 0 0 0 12.338 10.503v12.92zm116.355-37.566c-31.582 31.582-82.969 31.582-114.551 0-15.299-15.299-23.725-35.64-23.725-57.275s8.426-41.977 23.725-57.275c15.791-15.791 36.533-23.687 57.275-23.687s41.484 7.896 57.275 23.687c15.299 15.299 23.725 35.64 23.725 57.275s-8.425 41.976-23.724 57.275z" fill="#ffffff" opacity="1" data-original="#000000"></path><path d="m431.791 397.61-11.015 11.06V349c0-5.523-4.478-10-10-10s-10 4.477-10 10v59.763l-10.985-11.123c-3.883-3.93-10.212-3.968-14.143-.088-3.929 3.881-3.969 10.212-.088 14.142l27.983 28.333a10 10 0 0 0 7.095 2.973h.021c.021 0 .042-.003.064-.003.018 0 .035.003.053.003a9.972 9.972 0 0 0 7.88-3.858l27.307-27.418c3.896-3.913 3.884-10.245-.029-14.142-3.914-3.898-10.245-3.885-14.143.028zM71.297 159.38H210.71c5.522 0 10-4.477 10-10s-4.478-10-10-10H71.297c-5.522 0-10 4.477-10 10s4.477 10 10 10zM245.481 319.298H71.297c-5.522 0-10 4.477-10 10s4.478 10 10 10h174.185c5.522 0 10-4.477 10-10s-4.478-10-10.001-10zM245.481 379.271H71.297c-5.522 0-10 4.477-10 10s4.478 10 10 10h174.185c5.522 0 10-4.477 10-10s-4.478-10-10.001-10zM301.71 259.326H71.297c-5.522 0-10 4.477-10 10s4.478 10 10 10H301.71c5.522 0 10-4.477 10-10s-4.478-10-10-10zM70.297 220H250.71c5.522 0 10-4.477 10-10s-4.478-10-10-10H70.297c-5.522 0-10 4.477-10 10s4.477 10 10 10z" fill="#ffffff" opacity="1" data-original="#000000"></path><circle cx="300.477" cy="210" r="10.005" fill="#ffffff" opacity="1" data-original="#000000"></circle></g></svg>