<svg width="150" height="150" viewBox="0 0 150 150" fill="none" xmlns="http://www.w3.org/2000/svg">
<path d="M75 29.0039C72.2187 29.0039 69.4999 28.1877 67.1873 26.6586C64.8747 25.1295 63.0723 22.9561 62.0079 20.4133C60.9436 17.8705 60.6651 15.0725 61.2077 12.373C61.7503 9.67357 63.0896 7.19398 65.0563 5.24779C67.023 3.3016 69.5287 1.97623 72.2565 1.43927C74.9844 0.902321 77.8119 1.1779 80.3815 2.23117C82.9511 3.28444 85.1473 5.06809 86.6925 7.35657C88.2378 9.64505 89.0625 12.3356 89.0625 15.0879C89.0582 18.7774 87.5753 22.3145 84.939 24.9233C82.3027 27.5322 78.7283 28.9997 75 29.0039ZM75 6.839C73.3528 6.839 71.7425 7.32238 70.3729 8.228C69.0033 9.13362 67.9358 10.4208 67.3054 11.9268C66.6751 13.4328 66.5101 15.0899 66.8315 16.6887C67.1528 18.2874 67.9461 19.756 69.1108 20.9086C70.2756 22.0613 71.7596 22.8462 73.3752 23.1642C74.9908 23.4822 76.6654 23.319 78.1872 22.6952C79.709 22.0714 81.0098 21.0151 81.9249 19.6597C82.8401 18.3043 83.3286 16.7109 83.3286 15.0808C83.3262 12.8957 82.448 10.8007 80.8866 9.25556C79.3252 7.71043 77.2081 6.84135 75 6.839Z" fill="#0CB408"/>
<path d="M22.998 58.8867C20.2457 58.8867 17.5552 58.0706 15.2667 56.5414C12.9783 55.0123 11.1946 52.839 10.1413 50.2961C9.08806 47.7533 8.81248 44.9553 9.34943 42.2558C9.88638 39.5564 11.2118 37.0768 13.1579 35.1306C15.1041 33.1844 17.5837 31.859 20.2832 31.3221C22.9826 30.7851 25.7807 31.0607 28.3235 32.114C30.8663 33.1673 33.0397 34.9509 34.5688 37.2394C36.0979 39.5279 36.9141 42.2184 36.9141 44.9707C36.9098 48.6602 35.4423 52.1973 32.8335 54.8061C30.2246 57.415 26.6875 58.8825 22.998 58.8867ZM22.998 36.7218C21.368 36.7218 19.7745 37.2052 18.4192 38.1108C17.0638 39.0164 16.0074 40.3036 15.3836 41.8096C14.7598 43.3156 14.5966 44.9728 14.9146 46.5715C15.2326 48.1703 16.0176 49.6388 17.1702 50.7914C18.3229 51.9441 19.7914 52.729 21.3902 53.047C22.9889 53.3651 24.6461 53.2018 26.152 52.578C27.658 51.9542 28.9452 50.8979 29.8509 49.5425C30.7565 48.1872 31.2398 46.5937 31.2398 44.9636C31.2356 42.7797 30.3657 40.6866 28.8208 39.143C27.2759 37.5994 25.182 36.7313 22.998 36.7289V36.7218Z" fill="#0CB408"/>
<path d="M22.998 118.945C20.2457 118.945 17.5552 118.129 15.2667 116.6C12.9783 115.071 11.1946 112.898 10.1413 110.355C9.08806 107.812 8.81248 105.014 9.34943 102.314C9.88638 99.615 11.2118 97.1354 13.1579 95.1892C15.1041 93.243 17.5837 91.9176 20.2832 91.3807C22.9826 90.8437 25.7807 91.1193 28.3235 92.1726C30.8663 93.2258 33.0397 95.0095 34.5688 97.298C36.0979 99.5865 36.9141 102.277 36.9141 105.029C36.9098 108.719 35.4423 112.256 32.8335 114.865C30.2246 117.474 26.6875 118.941 22.998 118.945ZM22.998 96.7804C21.368 96.7804 19.7745 97.2638 18.4192 98.1694C17.0638 99.075 16.0074 100.362 15.3836 101.868C14.7598 103.374 14.5966 105.031 14.9146 106.63C15.2326 108.229 16.0176 109.697 17.1702 110.85C18.3229 112.003 19.7914 112.788 21.3902 113.106C22.9889 113.424 24.6461 113.26 26.152 112.637C27.658 112.013 28.9452 110.956 29.8509 109.601C30.7565 108.246 31.2398 106.652 31.2398 105.022C31.2356 102.838 30.3657 100.745 28.8208 99.2015C27.2759 97.658 25.182 96.7899 22.998 96.7875V96.7804Z" fill="#0CB408"/>
<path d="M127.002 118.945C124.25 118.945 121.559 118.129 119.271 116.6C116.982 115.071 115.199 112.898 114.145 110.355C113.092 107.812 112.816 105.014 113.353 102.314C113.89 99.615 115.216 97.1354 117.162 95.1892C119.108 93.243 121.588 91.9176 124.287 91.3807C126.987 90.8437 129.785 91.1193 132.327 92.1726C134.87 93.2258 137.044 95.0095 138.573 97.298C140.102 99.5865 140.918 102.277 140.918 105.029C140.914 108.719 139.446 112.256 136.837 114.865C134.229 117.474 130.691 118.941 127.002 118.945ZM127.002 96.7804C125.372 96.7804 123.778 97.2638 122.423 98.1694C121.068 99.075 120.011 100.362 119.388 101.868C118.764 103.374 118.601 105.031 118.919 106.63C119.237 108.229 120.021 109.697 121.174 110.85C122.327 112.003 123.795 112.788 125.394 113.106C126.993 113.424 128.65 113.26 130.156 112.637C131.662 112.013 132.949 110.956 133.855 109.601C134.76 108.246 135.244 106.652 135.244 105.022C135.24 102.838 134.37 100.745 132.825 99.2015C131.28 97.658 129.186 96.7899 127.002 96.7875V96.7804Z" fill="#0CB408"/>
<path d="M75 148.828C72.2187 148.828 69.4999 148.012 67.1873 146.483C64.8747 144.954 63.0723 142.78 62.0079 140.238C60.9436 137.695 60.6651 134.897 61.2077 132.197C61.7503 129.498 63.0896 127.018 65.0563 125.072C67.023 123.126 69.5287 121.8 72.2565 121.263C74.9844 120.727 77.8119 121.002 80.3815 122.055C82.9511 123.109 85.1473 124.892 86.6925 127.181C88.2378 129.469 89.0625 132.16 89.0625 134.912C89.0582 138.602 87.5753 142.139 84.939 144.748C82.3027 147.356 78.7283 148.824 75 148.828ZM75 126.663C73.3528 126.663 71.7425 127.147 70.3729 128.052C69.0033 128.958 67.9358 130.245 67.3054 131.751C66.6751 133.257 66.5101 134.914 66.8315 136.513C67.1528 138.112 67.9461 139.58 69.1108 140.733C70.2756 141.885 71.7596 142.67 73.3752 142.988C74.9908 143.306 76.6654 143.143 78.1872 142.519C79.709 141.896 81.0098 140.839 81.9249 139.484C82.8401 138.129 83.3286 136.535 83.3286 134.905C83.3262 132.72 82.448 130.625 80.8866 129.08C79.3252 127.535 77.2081 126.666 75 126.663Z" fill="#0CB408"/>
<path d="M127.002 58.8867C124.25 58.8867 121.559 58.0706 119.271 56.5414C116.982 55.0123 115.199 52.839 114.145 50.2961C113.092 47.7533 112.816 44.9553 113.353 42.2558C113.89 39.5564 115.216 37.0768 117.162 35.1306C119.108 33.1844 121.588 31.859 124.287 31.3221C126.987 30.7851 129.785 31.0607 132.327 32.114C134.87 33.1673 137.044 34.9509 138.573 37.2394C140.102 39.5279 140.918 42.2184 140.918 44.9707C140.914 48.6602 139.446 52.1973 136.837 54.8061C134.229 57.415 130.691 58.8825 127.002 58.8867ZM127.002 36.7218C125.372 36.7218 123.778 37.2052 122.423 38.1108C121.068 39.0164 120.011 40.3036 119.388 41.8096C118.764 43.3156 118.601 44.9728 118.919 46.5715C119.237 48.1703 120.021 49.6388 121.174 50.7914C122.327 51.9441 123.795 52.729 125.394 53.047C126.993 53.3651 128.65 53.2018 130.156 52.578C131.662 51.9542 132.949 50.8979 133.855 49.5425C134.76 48.1872 135.244 46.5937 135.244 44.9636C135.24 42.7797 134.37 40.6866 132.825 39.143C131.28 37.5994 129.186 36.7313 127.002 36.7289V36.7218Z" fill="#0CB408"/>
<path d="M127.002 96.6797C126.264 96.6797 125.556 96.3808 125.034 95.8488C124.512 95.3168 124.219 94.5953 124.219 93.843V56.157C124.219 55.4047 124.512 54.6832 125.034 54.1512C125.556 53.6192 126.264 53.3203 127.002 53.3203C127.74 53.3203 128.448 53.6192 128.97 54.1512C129.492 54.6832 129.785 55.4047 129.785 56.157V93.843C129.785 94.5953 129.492 95.3168 128.97 95.8488C128.448 96.3808 127.74 96.6797 127.002 96.6797Z" fill="#0CB408"/>
<path d="M32.7303 42.1875C32.0959 42.1881 31.4795 41.9787 30.9791 41.5927C30.4787 41.2066 30.1229 40.6659 29.9684 40.0567C29.814 39.4474 29.8696 38.8045 30.1265 38.2302C30.3834 37.6558 30.8268 37.183 31.3862 36.8868L64.0311 18.2261C64.6912 17.8628 65.47 17.7741 66.1962 17.9795C66.5557 18.0812 66.8915 18.252 67.1844 18.4822C67.4773 18.7124 67.7216 18.9974 67.9032 19.3211C68.0849 19.6447 68.2003 20.0007 68.2431 20.3685C68.2858 20.7364 68.2549 21.1089 68.1523 21.465C68.0496 21.821 67.8771 22.1536 67.6446 22.4436C67.4121 22.7336 67.1243 22.9755 66.7974 23.1553L34.1525 41.816C33.7197 42.0616 33.2291 42.1898 32.7303 42.1875Z" fill="#0CB408"/>
<path d="M65.4157 132.422C64.917 132.422 64.4271 132.291 63.9951 132.041L31.366 113.159C31.0352 112.979 30.7435 112.735 30.5079 112.44C30.2722 112.146 30.0973 111.808 29.9933 111.445C29.8893 111.083 29.8583 110.703 29.9021 110.328C29.9459 109.953 30.0636 109.591 30.2484 109.262C30.4332 108.934 30.6813 108.645 30.9785 108.413C31.2756 108.181 31.6158 108.011 31.9792 107.912C32.3426 107.813 32.7221 107.788 33.0954 107.837C33.4688 107.886 33.8287 108.009 34.1541 108.199L66.84 127.109C67.3819 127.423 67.8056 127.906 68.0452 128.485C68.2847 129.064 68.3268 129.706 68.1649 130.312C68.003 130.917 67.6461 131.452 67.1497 131.834C66.6532 132.215 66.045 132.422 65.4193 132.422H65.4157Z" fill="#0CB408"/>
<path d="M22.998 96.6797C22.2599 96.6797 21.552 96.3808 21.03 95.8488C20.5081 95.3168 20.2148 94.5953 20.2148 93.843V56.157C20.2148 55.4047 20.5081 54.6832 21.03 54.1512C21.552 53.6192 22.2599 53.3203 22.998 53.3203C23.7362 53.3203 24.4441 53.6192 24.9661 54.1512C25.488 54.6832 25.7812 55.4047 25.7812 56.157V93.843C25.7812 94.5953 25.488 95.3168 24.9661 95.8488C24.4441 96.3808 23.7362 96.6797 22.998 96.6797Z" fill="#0CB408"/>
<path d="M117.284 42.1875C116.785 42.1872 116.294 42.0551 115.862 41.8048L83.2051 22.9187C82.6543 22.6134 82.2202 22.1336 81.9708 21.5546C81.7215 20.9756 81.671 20.33 81.8273 19.7192C81.9836 19.1083 82.3379 18.5667 82.8345 18.1792C83.3312 17.7917 83.9422 17.5803 84.5717 17.5781C85.0707 17.5779 85.561 17.7093 85.9933 17.9591L118.65 36.8469C119.201 37.1522 119.635 37.632 119.885 38.211C120.134 38.79 120.184 39.4356 120.028 40.0465C119.872 40.6573 119.518 41.1989 119.021 41.5864C118.524 41.9739 117.913 42.1853 117.284 42.1875Z" fill="#0CB408"/>
<path d="M84.5843 132.422C83.9579 132.422 83.3488 132.215 82.8517 131.833C82.3547 131.451 81.9973 130.915 81.8352 130.309C81.6731 129.703 81.7152 129.06 81.9551 128.48C82.195 127.9 82.6192 127.415 83.1619 127.102L115.886 108.172C116.213 107.99 116.572 107.874 116.944 107.831C117.315 107.788 117.692 107.819 118.051 107.922C118.411 108.025 118.747 108.198 119.04 108.431C119.333 108.664 119.577 108.952 119.759 109.28C119.94 109.608 120.056 109.968 120.099 110.34C120.141 110.712 120.11 111.089 120.008 111.45C119.905 111.81 119.732 112.147 119.5 112.44C119.267 112.734 118.98 112.978 118.653 113.16L86.0033 132.046C85.5712 132.293 85.082 132.423 84.5843 132.422Z" fill="#0CB408"/>
<path d="M59.194 51.2695C57.4621 51.2722 55.7614 50.8095 54.2695 49.93C52.7777 49.0504 51.5494 47.7862 50.7133 46.2696C49.8771 44.7529 49.4636 43.0395 49.5162 41.3083C49.5687 39.5772 50.0853 37.892 51.0118 36.4288C51.9384 34.9657 53.241 33.7783 54.7835 32.9908C56.3259 32.2033 58.0516 31.8446 59.7801 31.9523C61.5086 32.0599 63.1764 32.63 64.6092 33.6027C66.042 34.5755 67.1873 35.9154 67.9252 37.4822C68.6191 38.9545 68.93 40.5782 68.8291 42.2028C68.7281 43.8273 68.2186 45.4 67.3478 46.7751C66.477 48.1502 65.273 49.2831 63.8476 50.0688C62.4222 50.8545 60.8215 51.2675 59.194 51.2695ZM59.1762 37.6063C58.3107 37.6062 57.4685 37.8871 56.7762 38.4067C56.084 38.9264 55.5792 39.6567 55.3376 40.4879C55.0961 41.3191 55.1309 42.2063 55.4368 43.016C55.7427 43.8257 56.3032 44.5143 57.034 44.9781C57.7648 45.4419 58.6265 45.6559 59.4893 45.588C60.3522 45.52 61.1697 45.1738 61.8189 44.6013C62.4682 44.0289 62.914 43.2611 63.0894 42.4134C63.2649 41.5658 63.1604 40.6841 62.7918 39.901C62.468 39.2156 61.9563 38.6361 61.3163 38.2299C60.6763 37.8238 59.9342 37.6075 59.1762 37.6063Z" fill="#0CB408"/>
<path d="M38.0931 81.7383C36.3616 81.7397 34.6615 81.2689 33.1704 80.3752C31.6794 79.4815 30.4521 78.1977 29.6169 76.6578C28.7817 75.118 28.3692 73.3787 28.4226 71.6217C28.4759 69.8646 28.993 68.1544 29.92 66.6697C30.847 65.1849 32.1497 63.9802 33.6921 63.1814C35.2345 62.3825 36.9599 62.0189 38.6881 62.1285C40.4163 62.2381 42.0837 62.8168 43.5162 63.8043C44.9487 64.7918 46.0936 66.1518 46.8314 67.7421C47.5253 69.2367 47.8362 70.885 47.7353 72.5341C47.6344 74.1833 47.1249 75.7799 46.2541 77.1758C45.3832 78.5717 44.1793 79.7218 42.7539 80.5194C41.3285 81.317 39.7278 81.7362 38.1002 81.7383H38.0931ZM38.0718 67.8771C37.3995 67.878 36.7383 68.0513 36.1495 68.3808C35.5607 68.7104 35.0634 69.1855 34.7037 69.7622C34.344 70.3388 34.1335 70.9983 34.0918 71.6796C34.0501 72.3608 34.1786 73.0417 34.4652 73.6592C34.7701 74.3161 35.2432 74.8777 35.8351 75.2855C36.4269 75.6933 37.1158 75.9321 37.8297 75.9772C38.5436 76.0222 39.2563 75.8718 39.8934 75.5415C40.5304 75.2113 41.0684 74.7134 41.4511 74.0999C41.8338 73.4864 42.0471 72.7798 42.0688 72.054C42.0905 71.3282 41.9197 70.6097 41.5744 69.9738C41.2291 69.3379 40.7218 68.8078 40.1057 68.439C39.4895 68.0701 38.7871 67.8761 38.0718 67.8771Z" fill="#0CB408"/>
<path d="M53.9178 115.137C52.1857 115.138 50.4849 114.675 48.9933 113.795C47.5016 112.914 46.2738 111.65 45.4381 110.133C44.6025 108.616 44.1897 106.903 44.2428 105.172C44.296 103.441 44.8132 101.756 45.7404 100.294C46.6675 98.831 47.9706 97.6441 49.5135 96.8571C51.0564 96.07 52.7824 95.7117 54.5111 95.8196C56.2399 95.9274 57.9079 96.4975 59.3409 97.4702C60.774 98.4429 61.9194 99.7826 62.6574 101.349C63.3488 102.822 63.6575 104.446 63.555 106.07C63.4524 107.693 62.942 109.265 62.0708 110.64C61.1996 112.014 59.9958 113.147 58.5707 113.933C57.1457 114.719 55.5454 115.133 53.9178 115.137ZM53.9054 101.475C53.0409 101.476 52.2002 101.758 51.5097 102.278C50.8192 102.798 50.3162 103.528 50.0762 104.359C49.8362 105.189 49.8722 106.075 50.1788 106.883C50.4854 107.691 51.0461 108.378 51.7765 108.84C52.507 109.302 53.3677 109.515 54.2295 109.446C55.0913 109.378 55.9074 109.031 56.5554 108.459C57.2034 107.887 57.6482 107.12 57.8229 106.274C57.9976 105.427 57.8928 104.547 57.5243 103.765C57.2003 103.08 56.688 102.501 56.0473 102.095C55.4065 101.69 54.6637 101.475 53.9054 101.475Z" fill="#0CB408"/>
<path d="M111.929 87.8906C110.197 87.8933 108.496 87.4237 107.004 86.5308C105.512 85.6379 104.284 84.3545 103.448 82.8149C102.611 81.2753 102.198 79.5359 102.251 77.7785C102.303 76.0212 102.82 74.3104 103.746 72.8251C104.673 71.3397 105.976 70.1343 107.518 69.3349C109.061 68.5355 110.787 68.1714 112.516 68.2807C114.244 68.39 115.912 68.9686 117.345 69.9562C118.778 70.9437 119.924 72.3038 120.661 73.8944C121.354 75.3891 121.665 77.0372 121.563 78.6859C121.462 80.3347 120.952 81.9308 120.081 83.3265C119.211 84.7221 118.007 85.8721 116.582 86.6699C115.157 87.4677 113.557 87.8876 111.929 87.8906ZM111.908 74.0294C111.043 74.0309 110.203 74.3172 109.512 74.8453C108.821 75.3734 108.318 76.1147 108.078 76.9579C107.838 77.8011 107.874 78.7006 108.181 79.5212C108.488 80.3418 109.048 81.0393 109.779 81.5087C110.509 81.9781 111.37 82.1942 112.232 82.1245C113.094 82.0548 113.91 81.703 114.559 81.122C115.207 80.541 115.651 79.7622 115.826 78.9026C116.001 78.0431 115.896 77.1492 115.528 76.3552C115.206 75.6564 114.695 75.0655 114.053 74.6522C113.412 74.2388 112.668 74.0202 111.908 74.0222V74.0294Z" fill="#0CB408"/>
<path d="M90.843 118.066C88.4621 118.072 86.163 117.199 84.386 115.614C82.609 114.03 81.4792 111.845 81.213 109.479C80.9468 107.113 81.563 104.732 82.9435 102.793C84.324 100.853 86.3717 99.4907 88.6942 98.9672C91.0168 98.4436 93.4509 98.7954 95.5301 99.9553C97.6093 101.115 99.1875 103.001 99.9622 105.253C100.737 107.504 100.654 109.962 99.7283 112.156C98.8031 114.349 97.1009 116.125 94.948 117.141C93.6644 117.748 92.2627 118.064 90.843 118.066ZM90.8341 104.426C89.9702 104.425 89.1292 104.704 88.4377 105.222C87.7462 105.74 87.2415 106.468 86.9996 107.298C86.7576 108.127 86.7916 109.012 87.0962 109.821C87.4009 110.629 87.9598 111.317 88.689 111.78C89.4181 112.244 90.278 112.458 91.1393 112.39C92.0006 112.323 92.8167 111.978 93.4649 111.407C94.1131 110.835 94.5583 110.069 94.7335 109.223C94.9088 108.377 94.8046 107.497 94.4366 106.716C94.2148 106.242 93.9013 105.816 93.514 105.464C93.1268 105.111 92.6736 104.839 92.1806 104.663C91.7487 104.508 91.2932 104.428 90.8341 104.426Z" fill="#0CB408"/>
<path d="M96.1133 54.1992C94.3813 54.2028 92.6801 53.741 91.1876 52.862C89.6951 51.9831 88.4662 50.7193 87.6293 49.2027C86.7923 47.6862 86.3782 45.9727 86.4301 44.2413C86.4821 42.51 86.9982 40.8244 87.9245 39.3608C88.8508 37.8971 90.1533 36.7093 91.6958 35.9214C93.2383 35.1335 94.9641 34.7745 96.6928 34.8819C98.4215 34.9893 100.09 35.5592 101.523 36.532C102.956 37.5049 104.101 38.8448 104.839 40.4119C105.533 41.8842 105.844 43.5079 105.743 45.1324C105.642 46.757 105.133 48.3297 104.262 49.7048C103.391 51.0799 102.187 52.2128 100.762 52.9985C99.3363 53.7842 97.7356 54.1972 96.108 54.1992H96.1133ZM96.0956 40.536C95.2305 40.5361 94.3889 40.817 93.6971 41.3365C93.0054 41.856 92.501 42.5861 92.2597 43.4168C92.0184 44.2476 92.0533 45.1343 92.3591 45.9436C92.6649 46.7528 93.2251 47.4409 93.9555 47.9045C94.6859 48.3681 95.547 48.582 96.4094 48.5141C97.2718 48.4463 98.0889 48.1003 98.7379 47.5283C99.3868 46.9562 99.8325 46.1889 100.008 45.3418C100.184 44.4947 100.079 43.6135 99.7112 42.8306C99.3877 42.145 98.8762 41.5653 98.2361 41.1591C97.596 40.7528 96.8537 40.5368 96.0956 40.536Z" fill="#0CB408"/>
<path d="M109.033 74.707C108.486 74.7072 107.951 74.5545 107.49 74.2667C107.028 73.979 106.659 73.568 106.426 73.0818L96.368 52.0913C96.0425 51.4104 96.0052 50.6302 96.2644 49.9224C96.5237 49.2145 97.0582 48.6369 97.7504 48.3167C98.4427 47.9964 99.2359 47.9598 99.9556 48.2148C100.675 48.4698 101.262 48.9955 101.588 49.6764L111.639 70.6669C111.846 71.0987 111.939 71.5749 111.908 72.0514C111.878 72.5278 111.726 72.9889 111.466 73.392C111.206 73.7951 110.846 74.127 110.421 74.3569C109.996 74.5868 109.518 74.7072 109.033 74.707Z" fill="#0CB408"/>
<path d="M42.1113 69.1406C41.5838 69.1412 41.0665 68.9954 40.6169 68.7195C40.1673 68.4436 39.8031 68.0484 39.5649 67.5778C39.3267 67.1072 39.2238 66.5798 39.2677 66.0542C39.3115 65.5287 39.5004 65.0256 39.8133 64.601L53.0848 45.4984C53.2976 45.1818 53.5718 44.9112 53.8912 44.7025C54.2105 44.4939 54.5685 44.3514 54.944 44.2836C55.3194 44.2159 55.7046 44.2241 56.0768 44.3079C56.449 44.3917 56.8005 44.5494 57.1107 44.7715C57.4208 44.9937 57.6831 45.2758 57.8822 45.6012C58.0812 45.9266 58.2129 46.2886 58.2693 46.6658C58.3258 47.043 58.306 47.4277 58.2111 47.7971C58.1161 48.1665 57.9479 48.5131 57.7165 48.8163L44.4503 67.9171C44.188 68.2945 43.8383 68.6029 43.431 68.8159C43.0238 69.0289 42.571 69.1404 42.1113 69.1406Z" fill="#0CB408"/>
<path d="M83.9585 110.742C83.8788 110.742 83.799 110.742 83.7193 110.742L60.6398 108.805C60.2684 108.778 59.9058 108.678 59.5729 108.511C59.24 108.344 58.9432 108.112 58.6995 107.83C58.4557 107.547 58.2699 107.22 58.1525 106.865C58.035 106.511 57.9884 106.137 58.0151 105.764C58.0419 105.392 58.1416 105.028 58.3084 104.694C58.4753 104.361 58.7061 104.063 58.9877 103.819C59.2693 103.574 59.5961 103.388 59.9495 103.27C60.3029 103.152 60.676 103.106 61.0474 103.132L84.1907 105.073C84.9053 105.151 85.5637 105.499 86.0326 106.045C86.5014 106.591 86.7459 107.296 86.7164 108.016C86.6869 108.737 86.3857 109.419 85.8737 109.925C85.3617 110.431 84.6772 110.723 83.9585 110.742Z" fill="#0CB408"/>
<path d="M51.0253 101.953C50.4786 101.953 49.9431 101.801 49.4813 101.513C49.0195 101.225 48.6506 100.814 48.4175 100.328L38.3608 79.334C38.1995 78.9974 38.1072 78.6328 38.0892 78.2612C38.0712 77.8895 38.1278 77.518 38.2558 77.1679C38.3839 76.8177 38.5808 76.4958 38.8353 76.2205C39.0899 75.9451 39.3971 75.7218 39.7395 75.5632C40.0818 75.4046 40.4526 75.3139 40.8306 75.2962C41.2086 75.2785 41.5865 75.3341 41.9426 75.46C42.2987 75.5859 42.6261 75.7795 42.9062 76.0298C43.1862 76.28 43.4134 76.5821 43.5747 76.9187L53.6314 97.9123C53.8383 98.3441 53.9309 98.8202 53.9006 99.2966C53.8704 99.773 53.7182 100.234 53.4582 100.637C53.1983 101.04 52.839 101.372 52.4137 101.602C51.9883 101.832 51.5108 101.953 51.0253 101.953Z" fill="#0CB408"/>
<path d="M89.3509 46.8701C89.2709 46.8701 89.1926 46.8701 89.1144 46.8594L65.9468 44.9282C65.3224 44.8887 64.7285 44.6451 64.2569 44.2352C63.7853 43.8252 63.4623 43.2717 63.338 42.6603C63.2137 42.049 63.2949 41.4138 63.5691 40.853C63.8432 40.2923 64.2951 39.8373 64.8548 39.5584C65.3218 39.3251 65.8442 39.2245 66.3648 39.2675L89.527 41.1988C90.2817 41.2223 90.9962 41.5438 91.5132 42.0925C92.0302 42.6413 92.3074 43.3723 92.2838 44.1249C92.2602 44.8774 91.9377 45.5898 91.3874 46.1052C90.837 46.6207 90.1039 46.8971 89.3491 46.8736L89.3509 46.8701Z" fill="#0CB408"/>
<path d="M94.5437 105.762C94.0238 105.761 93.5141 105.618 93.0697 105.349C92.6253 105.079 92.2632 104.693 92.0226 104.232C91.782 103.772 91.6721 103.254 91.7049 102.736C91.7376 102.217 91.9118 101.717 92.2084 101.29L105.513 82.144C105.724 81.8234 105.997 81.5486 106.317 81.3361C106.636 81.1237 106.995 80.9779 107.372 80.9076C107.749 80.8373 108.137 80.8439 108.511 80.927C108.886 81.0101 109.24 81.168 109.552 81.3913C109.864 81.6145 110.128 81.8984 110.327 82.226C110.526 82.5536 110.658 82.9181 110.713 83.2977C110.768 83.6772 110.746 84.064 110.647 84.4348C110.549 84.8055 110.377 85.1526 110.141 85.4552L96.8807 104.539C96.6187 104.916 96.2693 105.224 95.8623 105.437C95.4554 105.65 95.003 105.761 94.5437 105.762Z" fill="#0CB408"/>
</svg>
