<svg id="Layer_1" enable-background="new 0 0 464.059 464.059" height="512" viewBox="0 0 464.059 464.059" width="512" xmlns="http://www.w3.org/2000/svg"><path d="m410.467 278.444c-27.57 19.24-76.49 30.89-101.77 6.56-10.84-10.44-16.72-26.92-16.61-46.01.047-13.501 3.177-27.361 8.2-39.95 9.121-22.839 8.694-48.533-.96-71.62-13.83-33.09-9.93-66.78 7.73-85.35 27.79-29.23 84.36-15.51 114.08 8.2 62.44 49.81 54.93 182.38-10.67 228.17z" fill="#fe4f60"/><path d="m324.746 30.225c17.309-6.963 30.714 16.092 16.382 28.037-1.416 1.18-2.774 2.45-4.07 3.813-17.66 18.57-21.56 52.26-7.73 85.35 9.638 23.048 10.097 48.74.96 71.62-2.174 5.443-4.003 11.205-5.378 17.117-4.651 19.989-34.253 15.482-32.458-4.962.958-10.904 3.661-21.701 7.836-32.154 9.121-22.839 8.694-48.533-.96-71.62-15.243-36.47-10.839-82.616 25.418-97.201z" fill="#ff6d7a"/><path d="m171.577 230.264c1.861 19.674-2.041 41.142-16.16 54.74-25.28 24.33-74.2 12.68-101.77-6.56-65.6-45.79-73.11-178.36-10.67-228.17 29.72-23.71 86.29-37.43 114.08-8.2 17.66 18.57 21.56 52.26 7.73 85.35-9.638 23.048-10.097 48.74-.96 71.62 4.276 10.716 6.802 21.323 7.75 31.22z" fill="#fe4f60"/><g fill="#ff8c95"><path d="m423.736 143.339c-2.997-3.248-8.059-3.45-11.305-.453-4.02 3.71-9.6 6.034-15.802 5.706 1.198-6.374.573-11.453.424-12.472-.638-4.371-4.694-7.403-9.071-6.761-4.372.638-7.399 4.699-6.761 9.071.067.46 1.551 11.328-6.381 18.264-4.76 4.164-10.435 4.749-13.404 4.73-4.934-5.368-10.479-10.051-16.579-14.005 9.713-9.721 15.5-23.434 15.69-38.766.055-4.455-3.541-8.099-8.001-8.099-4.372 0-7.943 3.517-7.997 7.901-.214 17.241-9.569 31.007-24.42 35.925-45.483 15.089-74.436 52.243-74.312 101.294v184.9c.012 4.411 3.831 7.979 8.24 7.979 4.402 0 7.772-3.568 7.76-8.021v-184.9c-.089-35.064 17.419-64.181 48.462-79.887 10.138-5.148 14.351-5.591 20.147-8.262 14.891 7.802 26.145 20.308 32.45 35.403 1.695 4.057 6.37 6.008 10.466 4.298 4.076-1.703 6.001-6.389 4.298-10.466-1.565-3.747-3.391-7.351-5.438-10.811 7.377-2.145 13.482-6.474 17.773-12.075 11.992 2.522 24.371-.943 33.308-9.191 3.247-2.995 3.449-8.055.453-11.302z"/><path d="m371.096 228.642c-1.757-4.298-6.743-6.188-10.869-4.197-10.034 4.811-18.417 5.878-19.036 6.036-16.011 2.506-29.053.268-42.661-6.168-2.459-1.163-5.341.418-5.678 3.117-.388 3.099-.619 6.086-.714 8.9-.056 1.647.918 3.139 2.425 3.805 11.859 5.24 24.794 7.623 35.999 7.35-1.458 9 1.368 18.178 7.552 24.89 1.577 1.713 3.728 2.58 5.886 2.58 6.881 0 10.639-8.258 5.882-13.42-3.887-4.221-4.981-10.436-1.956-16.06 6.561-1.433 12.936-3.617 19-6.505 3.849-1.833 5.783-6.382 4.17-10.328z"/><path d="m143.983 144.38c-14.848-4.917-24.203-18.683-24.417-35.924-.056-4.566-3.906-8.024-8.098-7.9-4.418.055-7.955 3.68-7.9 8.098.19 15.333 5.977 29.044 15.689 38.766-6.101 3.954-11.646 8.638-16.58 14.005-2.969.019-8.645-.567-13.405-4.731-7.931-6.935-6.447-17.803-6.38-18.263.639-4.372-2.389-8.434-6.761-9.071-4.375-.641-8.434 2.389-9.071 6.761-.149 1.019-.773 6.099.424 12.472-6.107.326-11.727-1.944-15.802-5.705-3.247-2.997-8.308-2.793-11.305.453-2.996 3.247-2.794 8.308.453 11.305 8.864 8.18 21.217 11.734 33.308 9.192 4.306 5.619 10.412 9.934 17.773 12.074-2.047 3.461-3.872 7.064-5.438 10.811-2.206 5.28 1.697 11.086 7.379 11.086 3.13 0 6.103-1.85 7.385-4.918 6.29-15.06 17.52-27.58 32.449-35.403 1.699.783 3.451 1.483 5.26 2.083 40.842 13.54 63.45 46.254 63.349 86.065v184.9c-.012 4.418 3.32 8.015 7.739 8.021 4.445.006 8.249-3.578 8.261-7.979v-184.9c.126-49.087-28.855-86.218-74.312-101.298z"/><path d="m171.265 227.448c-.336-2.692-3.206-4.273-5.664-3.124-4.7 2.197-12.243 5.563-23.363 6.77-13.378 1.447-26.758-1.091-38.35-6.65-4.126-1.991-9.112-.101-10.869 4.197-1.613 3.946.321 8.496 4.17 10.328 6.065 2.888 12.44 5.072 19 6.505 3.006 5.592 1.958 11.81-1.956 16.06-2.994 3.249-2.786 8.311.464 11.304 3.262 3.007 8.325 2.771 11.304-.464 6.191-6.719 9.009-15.898 7.552-24.89 11.058.27 23.968-2.035 35.999-7.35 1.507-.666 2.481-2.158 2.425-3.805-.095-2.808-.326-5.788-.712-8.881z"/></g><path d="m86.566 29.029c17.14-4.428 25.781 19.947 9.655 27.249-8.671 3.926-16.624 8.713-23.244 13.996-28.885 23.04-42.801 63.791-42.922 105.47-.053 18.32-26.944 19.65-28.94 1.439-5.388-49.139 8.79-100.526 41.863-126.909 11.784-9.402 27.341-17.047 43.588-21.245z" fill="#ff6d7a"/></svg>