<svg xmlns="http://www.w3.org/2000/svg" version="1.1" xmlns:xlink="http://www.w3.org/1999/xlink" width="512" height="512" x="0" y="0" viewBox="0 0 498.928 498.928" style="enable-background:new 0 0 512 512" xml:space="preserve" class=""><g><path d="M345.464 130.928c-13.232 0-24 10.768-24 24s10.768 24 24 24 24-10.768 24-24-10.768-24-24-24zm0 32c-4.416 0-8-3.592-8-8s3.584-8 8-8 8 3.592 8 8-3.584 8-8 8z" fill="#ff1d1d" opacity="1" data-original="#000000" class=""></path><path d="M451.872 436.808c29.464-36.792 45.592-82.336 45.592-129.88 0-73.136-37.32-139.56-100.088-177.84l-3.312-1.856c-9.52-16.64-27.304-27.936-47.728-28.256L380.384 40l-69.28-40-42.144 73.008c-25.808-42.952-72.832-70.08-123.496-70.08-79.4 0-144 64.6-144 144s64.6 144 144 144c22.92 0 45.608-5.552 65.864-15.984l31.992 18.472 16-27.712 14.296 8.256 37.296-75.048c9.528 7.496 21.512 12.016 34.552 12.016 3.944 0 7.784-.416 11.496-1.2 23.184 24.416 36.504 59.68 36.504 97.2 0 8.296-.824 16.512-2.104 24.6-1.912-.36-3.872-.6-5.896-.6-8.048 0-15.32 3.08-20.944 8H177.464c-13.232 0-24 10.768-24 24s10.768 24 24 24H364.52c1.264 1.104 2.576 2.144 4 3.04-19.688 28.288-48.696 44.96-79.056 44.96h-152c-17.648 0-32 14.352-32 32s14.352 32 32 32h304c17.648 0 32-14.352 32-32 0-13.984-9.072-25.776-21.592-30.12zm-97.272-65.88H177.464c-4.416 0-8-3.584-8-8s3.584-8 8-8H354.6c-.672 2.576-1.136 5.224-1.136 8s.464 5.424 1.136 8zM316.968 21.856l41.56 24-8 13.848-41.56-24 8-13.848zM145.464 274.928c-70.576 0-128-57.424-128-128s57.424-128 128-128c48.08 0 92.472 27.48 114.168 70.232l-4.52 7.832-13.44-7.76-79.8 120.208 14.304 8.256-16 27.704 34.216 19.76c-15.424 6.384-32.096 9.768-48.928 9.768zm92-3.368-55.424-32 8-13.848 55.424 32-8 13.848zm29.408-19.976-82.24-47.48 62.064-93.496 45.76 26.416c-1.912 5.632-2.992 11.64-2.992 17.904 0 11.696 3.616 22.552 9.768 31.544l-32.36 65.112zM268.968 105l32-55.424 41.56 24-16.744 29a56.15 56.15 0 0 0-26.072 20.168L268.968 105zm76.496 89.928c-22.056 0-40-17.944-40-40s17.944-40 40-40 40 17.944 40 40-17.944 40-40 40zm40 152c8.824 0 16 7.176 16 16s-7.176 16-16 16-16-7.176-16-16 7.176-16 16-16zm-.976 47.904c.336.008.64.096.976.096 17.648 0 32-14.352 32-32 0-9.6-4.336-18.12-11.048-23.992 1.976-10.448 3.048-21.192 3.048-32.008 0-39.168-13.312-76.192-36.552-103.24 8.088-4.568 14.904-11.096 19.856-18.928 36.072 30.352 56.696 74.536 56.696 122.168 0 26.6-6.656 52.952-19.256 76.184l14.064 7.624c13.864-25.568 21.192-54.552 21.192-83.808 0-53.968-24.056-103.952-66-137.4 1.264-4.664 2-9.544 2-14.6 0-1.376-.112-2.728-.208-4.08 50.464 36.064 80.208 93.384 80.208 156.08 0 47.472-17.472 92.744-49.072 128h-88.016c15.504-9.568 29.24-23.2 40.112-40.096zm56.976 88.096h-304c-8.824 0-16-7.176-16-16s7.176-16 16-16h304c8.824 0 16 7.176 16 16s-7.176 16-16 16z" fill="#ff1d1d" opacity="1" data-original="#000000" class=""></path><path d="M97.464 106.928c-22.056 0-40 17.944-40 40s17.944 40 40 40 40-17.944 40-40-17.944-40-40-40zm0 64c-13.232 0-24-10.768-24-24s10.768-24 24-24 24 10.768 24 24-10.768 24-24 24zM121.464 42.928c0 13.232-10.768 24-24 24v16c22.056 0 40-17.944 40-40h-16zM97.464 210.928h-16c0 22.056 17.944 40 40 40v-16c-13.232 0-24-10.768-24-24zM57.464 82.928h16v16h-16zM185.464 58.928h16v16h-16zM177.464 122.928h16v16h-16zM129.464 202.928h16v16h-16z" fill="#ff1d1d" opacity="1" data-original="#000000" class=""></path><path d="M89.464 138.928h16v16h-16z" fill="#ff1d1d" opacity="1" data-original="#000000" class=""></path></g></svg>