<svg id="Layer_1" enable-background="new 0 0 464.019 464.019" height="512" viewBox="0 0 464.019 464.019" width="512" xmlns="http://www.w3.org/2000/svg"><path d="m452.099 38.587c-5.98-15.97-22.58-26.48-44.96-12.51-18.07 14.35-38.57 25.7-60.71 33.4.043.025.084.053.126.078-14.194-8.395-31.021-11.626-47.556-9.048-92.98 14.52-190.23-3.96-247.52 42.14-84.56 68.08-55.42 269.01 18.91 331.35 73.22 61.38 79.63-31.22 134.39-69.95 26.4-18.67 82.99-36.8 137.65-67.07 21.903-12.125 39.373-30.166 50.662-51.469.004.004.001.019.008.019 48.56-34.51 92.91-106.41 59-196.94z" fill="#ff6d7a"/><path d="m452.099 38.587c33.91 90.53-10.44 162.43-59 196.94-.75 0 13.741-20.996 14.3-55.36.07-4.19-.07-8.12-.47-11.65-4.78-41.68-24.74-73.12-42.73-94.15-5.14-6-11.16-11-17.77-14.89 22.14-7.7 42.64-19.05 60.71-33.4 22.38-13.97 38.98-3.46 44.96 12.51z" fill="#fe4f60"/><path d="m343.748 58.155c9.725 5.493 7.264 20.485-4.749 22.353-92.98 14.52-190.23-3.96-247.52 42.14-43.39 34.932-56.843 104.843-49.614 173.061 2.32 21.898-29.77 26.969-34.38 5.436-16.83-78.624-6.571-167.787 43.994-208.497 57.29-46.1 154.54-27.62 247.52-42.14 16.201-2.527 31.116-.053 44.749 7.647z" fill="#ff8c95"/><path d="m132.43 131.188c-7.638 0-10.937-9.742-4.846-14.371.531-.403 1.064-.805 1.599-1.203 3.544-2.64 8.556-1.905 11.194 1.638 2.639 3.543 1.906 8.555-1.638 11.194-1.897 1.416-3.355 2.742-6.309 2.742z" fill="#fff"/><path d="m57.191 249.246c-5.122 0-8.919-4.737-7.82-9.722 8.169-37.09 25.979-71.179 51.501-98.581 3.01-3.232 8.072-3.413 11.307-.401 3.233 3.011 3.413 8.073.401 11.307-23.575 25.311-40.029 56.818-47.584 91.117-.823 3.735-4.132 6.28-7.805 6.28z" fill="#fff"/><path d="m273.246 422.723-29.352 8.874c-4.704 1.422-9.572-1.686-10.236-6.555-7.636-56.049-39.273-104.045-87.46-135.004-3.271-2.102-4.565-6.238-3.064-9.824l13.704-32.732c1.828-4.367 7.034-6.217 11.189-3.947 10.279 5.614 20.335 11.797 30.236 18.653 4.083 2.828 9.713 1.336 11.821-3.161 6.929-14.78 15.917-28.579 26.616-40.859 2.575-2.956 6.906-3.613 10.241-1.553l24.147 14.914c3.91 2.415 4.976 7.608 2.355 11.384-5.623 8.1-11.724 19.012-15.735 32.635-8.07 27.39-3.29 50.76 3.28 81.06 3.136 14.442 8.32 33.56 17.328 55.394 1.805 4.373-.542 9.352-5.07 10.721z" fill="#fe4f60"/><path d="m425.228 44.8c-1.977.891-4.008 1.978-6.089 3.277-11.895 9.443-24.839 17.586-38.611 24.245-7.183 3.473-15.785 2.078-21.559-3.428-3.534-3.37-7.512-6.459-12.54-9.418 22.14-7.7 42.64-19.05 60.71-33.4 2.939-1.835 5.857-3.325 8.727-4.43 15.01-5.776 24.026 16.547 9.362 23.154z" fill="#ff6d7a"/></svg>