<svg width="150" height="150" viewBox="0 0 150 150" fill="none" xmlns="http://www.w3.org/2000/svg">
<g clip-path="url(#clip0_98_19)">
<path d="M27.273 20.0224C40.0526 8.91885 56.7413 2.19727 75 2.19727C115.208 2.19727 147.803 34.7921 147.803 75C147.803 115.208 115.208 147.803 75 147.803C34.7921 147.803 2.19727 115.208 2.19727 75C2.19727 56.8046 8.87226 40.1681 19.9072 27.4058" stroke="#0CB408" stroke-width="4.39453" stroke-miterlimit="10" stroke-linecap="round" stroke-linejoin="round"/>
<path d="M75.0001 138.096C109.847 138.096 138.096 109.847 138.096 75.0001C138.096 40.1533 109.847 11.9043 75.0001 11.9043C40.1533 11.9043 11.9043 40.1533 11.9043 75.0001C11.9043 109.847 40.1533 138.096 75.0001 138.096Z" stroke="#0CB408" stroke-width="4.39453" stroke-miterlimit="10" stroke-linecap="round" stroke-linejoin="round"/>
<path d="M43.4521 111.401C47.4729 111.401 50.7324 108.142 50.7324 104.121C50.7324 100.1 47.4729 96.8408 43.4521 96.8408C39.4314 96.8408 36.1719 100.1 36.1719 104.121C36.1719 108.142 39.4314 111.401 43.4521 111.401Z" stroke="#0CB408" stroke-width="4.39453" stroke-miterlimit="10" stroke-linecap="round" stroke-linejoin="round"/>
<path d="M126.966 83.2858C128.861 81.3903 128.861 78.3172 126.966 76.4218C125.07 74.5263 121.997 74.5263 120.102 76.4218C118.206 78.3172 118.206 81.3903 120.102 83.2857C121.997 85.1812 125.07 85.1812 126.966 83.2858Z" stroke="#0CB408" stroke-width="4.39453" stroke-miterlimit="10" stroke-linecap="round" stroke-linejoin="round"/>
<path d="M102.698 73.5787C104.594 71.6833 104.594 68.6102 102.698 66.7147C100.803 64.8193 97.7298 64.8193 95.8343 66.7147C93.9389 68.6102 93.9389 71.6833 95.8343 73.5787C97.7298 75.4742 100.803 75.4742 102.698 73.5787Z" stroke="#0CB408" stroke-width="4.39453" stroke-miterlimit="10" stroke-linecap="round" stroke-linejoin="round"/>
<path d="M112.509 37.0519C111.913 36.463 111.303 35.8879 110.68 35.3272C108.607 33.461 105.372 33.7888 103.677 36.0051L103.622 36.0781C102.11 38.0542 102.343 40.8734 104.193 42.5377C108.055 46.0144 111.297 50.1681 113.727 54.8111C114.879 57.0098 117.485 58.0056 119.79 57.0839C119.82 57.0719 119.85 57.0599 119.88 57.0476C122.505 55.9979 123.681 52.9091 122.374 50.4028C121.426 48.584 120.376 46.8265 119.231 45.1378" stroke="#0CB408" stroke-width="4.39453" stroke-miterlimit="10" stroke-linecap="round" stroke-linejoin="round"/>
<path d="M102.225 29.0955C97.5156 26.2903 92.3409 24.1886 86.8459 22.9379C84.0689 22.3059 81.3501 24.1985 80.9968 27.0245L80.9842 27.1244C80.6775 29.5777 82.2853 31.8556 84.6961 32.4043C89.1739 33.4235 93.3917 35.1333 97.2323 37.4143C99.3334 38.6624 102.033 38.1556 103.517 36.214L103.575 36.1385C105.319 33.8592 104.691 30.5641 102.225 29.0955Z" stroke="#0CB408" stroke-width="4.39453" stroke-miterlimit="10" stroke-linecap="round" stroke-linejoin="round"/>
<path d="M56.7004 40.891C59.3091 40.275 60.9245 37.6609 60.3085 35.0521C59.6925 32.4434 57.0784 30.828 54.4696 31.444C51.8609 32.06 50.2455 34.6741 50.8615 37.2829C51.4775 39.8916 54.0916 41.507 56.7004 40.891Z" stroke="#0CB408" stroke-width="4.39453" stroke-miterlimit="10" stroke-linecap="round" stroke-linejoin="round"/>
<path d="M55.5858 70.1463C60.9468 70.1463 65.2928 65.8003 65.2928 60.4394C65.2928 55.0784 60.9468 50.7324 55.5858 50.7324C50.2248 50.7324 45.8789 55.0784 45.8789 60.4394C45.8789 65.8003 50.2248 70.1463 55.5858 70.1463Z" stroke="#0CB408" stroke-width="4.39453" stroke-miterlimit="10" stroke-linecap="round" stroke-linejoin="round"/>
<path d="M55.5859 41.0251V50.7324" stroke="#0CB408" stroke-width="4.39453" stroke-miterlimit="10" stroke-linecap="round" stroke-linejoin="round"/>
<path d="M38.4261 48.1333C41.1067 48.1333 43.2797 45.9602 43.2797 43.2796C43.2797 40.5991 41.1067 38.426 38.4261 38.426C35.7455 38.426 33.5725 40.5991 33.5725 43.2796C33.5725 45.9602 35.7455 48.1333 38.4261 48.1333Z" stroke="#0CB408" stroke-width="4.39453" stroke-miterlimit="10" stroke-linecap="round" stroke-linejoin="round"/>
<path d="M41.8584 46.7114L48.7224 53.5754" stroke="#0CB408" stroke-width="4.39453" stroke-miterlimit="10" stroke-linecap="round" stroke-linejoin="round"/>
<path d="M31.3185 65.2929C33.999 65.2929 36.1721 63.1199 36.1721 60.4393C36.1721 57.7587 33.999 55.5857 31.3185 55.5857C28.6379 55.5857 26.4648 57.7587 26.4648 60.4393C26.4648 63.1199 28.6379 65.2929 31.3185 65.2929Z" stroke="#0CB408" stroke-width="4.39453" stroke-miterlimit="10" stroke-linecap="round" stroke-linejoin="round"/>
<path d="M36.1721 60.4395H45.8791" stroke="#0CB408" stroke-width="4.39453" stroke-miterlimit="10" stroke-linecap="round" stroke-linejoin="round"/>
<path d="M38.4261 82.4528C41.1067 82.4528 43.2797 80.2798 43.2797 77.5992C43.2797 74.9186 41.1067 72.7456 38.4261 72.7456C35.7455 72.7456 33.5725 74.9186 33.5725 77.5992C33.5725 80.2798 35.7455 82.4528 38.4261 82.4528Z" stroke="#0CB408" stroke-width="4.39453" stroke-miterlimit="10" stroke-linecap="round" stroke-linejoin="round"/>
<path d="M41.8584 74.1674L48.7224 67.3035" stroke="#0CB408" stroke-width="4.39453" stroke-miterlimit="10" stroke-linecap="round" stroke-linejoin="round"/>
<path d="M59.0169 88.1388C60.9124 86.2433 60.9124 83.1702 59.0169 81.2748C57.1215 79.3794 54.0484 79.3794 52.1529 81.2748C50.2575 83.1702 50.2575 86.2433 52.1529 88.1388C54.0484 90.0342 57.1215 90.0342 59.0169 88.1388Z" stroke="#0CB408" stroke-width="4.39453" stroke-miterlimit="10" stroke-linecap="round" stroke-linejoin="round"/>
<path d="M72.7457 82.4528C75.4263 82.4528 77.5993 80.2798 77.5993 77.5992C77.5993 74.9186 75.4263 72.7456 72.7457 72.7456C70.0651 72.7456 67.8921 74.9186 67.8921 77.5992C67.8921 80.2798 70.0651 82.4528 72.7457 82.4528Z" stroke="#0CB408" stroke-width="4.39453" stroke-miterlimit="10" stroke-linecap="round" stroke-linejoin="round"/>
<path d="M69.3139 74.1674L62.45 67.3035" stroke="#0CB408" stroke-width="4.39453" stroke-miterlimit="10" stroke-linecap="round" stroke-linejoin="round"/>
<path d="M80.6332 65.2297C83.2792 64.8003 85.0761 62.3072 84.6467 59.6612C84.2172 57.0152 81.7241 55.2183 79.0781 55.6477C76.4321 56.0772 74.6352 58.5703 75.0647 61.2163C75.4941 63.8623 77.9872 65.6592 80.6332 65.2297Z" stroke="#0CB408" stroke-width="4.39453" stroke-miterlimit="10" stroke-linecap="round" stroke-linejoin="round"/>
<path d="M75.0001 60.4395H65.2932" stroke="#0CB408" stroke-width="4.39453" stroke-miterlimit="10" stroke-linecap="round" stroke-linejoin="round"/>
<path d="M72.7457 48.1333C75.4263 48.1333 77.5993 45.9602 77.5993 43.2796C77.5993 40.5991 75.4263 38.426 72.7457 38.426C70.0651 38.426 67.8921 40.5991 67.8921 43.2796C67.8921 45.9602 70.0651 48.1333 72.7457 48.1333Z" stroke="#0CB408" stroke-width="4.39453" stroke-miterlimit="10" stroke-linecap="round" stroke-linejoin="round"/>
<path d="M69.3139 46.7114L62.45 53.5754" stroke="#0CB408" stroke-width="4.39453" stroke-miterlimit="10" stroke-linecap="round" stroke-linejoin="round"/>
<path d="M55.5859 79.8535V70.1462" stroke="#0CB408" stroke-width="4.39453" stroke-miterlimit="10" stroke-linecap="round" stroke-linejoin="round"/>
<path d="M103.289 108.975C107.079 105.184 107.079 99.0379 103.289 95.2469C99.4979 91.4561 93.3517 91.4561 89.5607 95.2469C88.31 96.4975 77.0835 107.724 75.8328 108.975C72.0421 112.766 72.0421 118.912 75.8328 122.703C79.6235 126.493 85.7697 126.493 89.5607 122.703C90.8114 121.452 102.038 110.225 103.289 108.975Z" stroke="#0CB408" stroke-width="4.39453" stroke-miterlimit="10" stroke-linecap="round" stroke-linejoin="round"/>
<path d="M89.5607 95.2468L86.1289 91.8149" stroke="#0CB408" stroke-width="4.39453" stroke-miterlimit="10" stroke-linecap="round" stroke-linejoin="round"/>
<path d="M82.6967 102.111L79.2649 98.6787" stroke="#0CB408" stroke-width="4.39453" stroke-miterlimit="10" stroke-linecap="round" stroke-linejoin="round"/>
<path d="M106.72 112.406L103.289 108.975" stroke="#0CB408" stroke-width="4.39453" stroke-miterlimit="10" stroke-linecap="round" stroke-linejoin="round"/>
<path d="M99.8564 119.27L96.4246 115.839" stroke="#0CB408" stroke-width="4.39453" stroke-miterlimit="10" stroke-linecap="round" stroke-linejoin="round"/>
<path d="M75.8327 108.975L72.4009 105.542" stroke="#0CB408" stroke-width="4.39453" stroke-miterlimit="10" stroke-linecap="round" stroke-linejoin="round"/>
<path d="M92.9924 126.135L89.5605 122.702" stroke="#0CB408" stroke-width="4.39453" stroke-miterlimit="10" stroke-linecap="round" stroke-linejoin="round"/>
<circle cx="62.8662" cy="118.682" r="2.19727" fill="#0CB408"/>
<circle cx="99.2676" cy="50.7324" r="2.19727" fill="#0CB408"/>
<circle cx="108.975" cy="84.707" r="2.19727" fill="#0CB408"/>
<circle cx="67.8923" cy="24.0381" r="2.19727" fill="#0CB408"/>
<circle cx="121.108" cy="96.8408" r="2.19727" fill="#0CB408"/>
</g>
<defs>
<clipPath id="clip0_98_19">
<rect width="150" height="150" fill="white"/>
</clipPath>
</defs>
</svg>
