<svg xmlns="http://www.w3.org/2000/svg" version="1.1" xmlns:xlink="http://www.w3.org/1999/xlink" width="512" height="512" x="0" y="0" viewBox="0 0 64 64" style="enable-background:new 0 0 512 512" xml:space="preserve"><g><path d="M55.993 2.999 43.336 3A22.854 22.854 0 0 0 32 0C19.318 0 9 10.317 9 23H2.058c-.554 0-1.09.232-1.47.639-.375.4-.57.941-.534 1.484C.26 28.271.934 31.312 2 34.18V62c0 1.103.897 2 2 2h56c1.103 0 2-.897 2-2V34.1c1.297-3.496 2-7.244 2-11.1 0-6.988-2.212-13.628-6.399-19.202a2.022 2.022 0 0 0-1.608-.799zM56.002 5c.489.651.95 1.319 1.381 2H48.5a23.233 23.233 0 0 0-2.207-2zM45.555 58h-27.11l7.312-26h12.485zm3.664 2 .5 2H14.281l.5-2zm-9.051-28.541A2.008 2.008 0 0 0 38.243 30H25.757c-.893 0-1.684.601-1.925 1.459l-.669 2.378A13.958 13.958 0 0 1 18 23c0-7.72 6.28-14 14-14s14 6.28 14 14c0 3.059-.968 5.963-2.799 8.4a1 1 0 1 0 1.599 1.201A15.857 15.857 0 0 0 48 23c0-7.037-4.573-13.015-10.898-15.151 1.825-.911 3.158-2.295 3.667-3.905C47.976 7.274 53 14.553 53 23a20.956 20.956 0 0 1-10.154 17.98zM38.905 3.19C38.369 5.315 35.43 7 32 7s-6.369-1.685-6.905-3.81C27.261 2.433 29.579 2 32 2s4.739.433 6.905 1.19zm-15.674.753c.508 1.61 1.842 2.994 3.667 3.905C20.573 9.985 16 15.963 16 23c0 5.138 2.447 9.912 6.576 12.924l-1.422 5.056A20.956 20.956 0 0 1 11 23c0-8.447 5.024-15.726 12.231-19.057zM9.096 25c.058.674.148 1.34.264 2H2.257a30.697 30.697 0 0 1-.2-2zM4 38.55c2.864 5.151 7.151 9.489 12.516 12.461a1 1 0 0 0 .968-1.75C9.685 44.941 4.316 37.544 2.594 29h7.204a22.937 22.937 0 0 0 10.799 13.963L16.367 58H14a.999.999 0 0 0-.97.758L12.219 62H4zM60 62h-8.219l-.811-3.242A.999.999 0 0 0 50 58h-2.367l-1.74-6.187A32.03 32.03 0 0 0 60 38.472zM45.342 49.855l-1.938-6.892C50.572 38.865 55 31.296 55 23a22.875 22.875 0 0 0-4.77-14h8.31C60.812 13.287 62 18.049 62 23c0 11.399-6.507 21.803-16.658 26.855z" fill="#ff1515" opacity="1" data-original="#000000"></path><path d="M36 34h-8a1 1 0 0 0-.98.804l-1 5A.998.998 0 0 0 27 41h10a1.001 1.001 0 0 0 .98-1.196l-1-5A1 1 0 0 0 36 34zm-7.78 5 .6-3h6.36l.6 3z" fill="#ff1515" opacity="1" data-original="#000000"></path><circle cx="14" cy="20" r="1" fill="#ff1515" opacity="1" data-original="#000000"></circle><circle cx="14" cy="24" r="1" fill="#ff1515" opacity="1" data-original="#000000"></circle><circle cx="50" cy="20" r="1" fill="#ff1515" opacity="1" data-original="#000000"></circle><circle cx="50" cy="24" r="1" fill="#ff1515" opacity="1" data-original="#000000"></circle></g></svg>