<svg width="151" height="151" viewBox="0 0 151 151" fill="none" xmlns="http://www.w3.org/2000/svg">
<path d="M96.5938 136.438H19.25V134.094C19.25 132.229 19.9908 130.441 21.3094 129.122C22.628 127.803 24.4164 127.062 26.2812 127.062H28.625C29.2466 127.062 29.8427 126.816 30.2823 126.376C30.7218 125.936 30.9688 125.34 30.9688 124.719V122.375C30.9688 121.753 30.7218 121.157 30.2823 120.718C29.8427 120.278 29.2466 120.031 28.625 120.031C28.0034 120.031 27.4073 120.278 26.9677 120.718C26.5282 121.157 26.2812 121.753 26.2812 122.375C23.1732 122.375 20.1925 123.61 17.9948 125.807C15.7972 128.005 14.5625 130.986 14.5625 134.094V138.781C14.5625 139.403 14.8094 139.999 15.249 140.439C15.6885 140.878 16.2846 141.125 16.9062 141.125H26.2812V145.812C26.2812 146.434 26.5282 147.03 26.9677 147.47C27.4073 147.909 28.0034 148.156 28.625 148.156H40.3438C40.9654 148.156 41.5615 147.909 42.001 147.47C42.4406 147.03 42.6875 146.434 42.6875 145.812V141.125H96.5938C97.2154 141.125 97.8115 140.878 98.251 140.439C98.6906 139.999 98.9375 139.403 98.9375 138.781C98.9375 138.16 98.6906 137.564 98.251 137.124C97.8115 136.684 97.2154 136.438 96.5938 136.438ZM38 143.469H30.9688V141.125H38V143.469Z" fill="#0CB408"/>
<path d="M124.719 122.375H75.4999C73.6351 122.375 71.8467 121.634 70.528 120.315C69.2094 118.997 68.4686 117.208 68.4686 115.344V98.9374C69.0902 98.9374 69.6864 98.6905 70.1259 98.2509C70.5655 97.8114 70.8124 97.2152 70.8124 96.5936C70.8124 95.972 70.5655 95.3759 70.1259 94.9363C69.6864 94.4968 69.0902 94.2499 68.4686 94.2499H53.4686C53.0793 93.8594 52.5648 93.6188 52.0155 93.5702C47.5869 93.2731 43.2982 91.8972 39.5233 89.5624H91.2499L90.078 94.2499H77.8436C77.222 94.2499 76.6259 94.4968 76.1864 94.9363C75.7468 95.3759 75.4999 95.972 75.4999 96.5936C75.4999 97.2152 75.7468 97.8114 76.1864 98.2509C76.6259 98.6905 77.222 98.9374 77.8436 98.9374H91.9061C92.4415 98.953 92.9661 98.7847 93.3926 98.4606C93.819 98.1365 94.1216 97.6762 94.2499 97.1561L96.5936 87.7811C96.6814 87.4352 96.689 87.0738 96.6159 86.7245C96.5428 86.3752 96.3909 86.0472 96.1718 85.7655C95.9438 85.4766 95.6511 85.2454 95.3172 85.0907C94.9833 84.936 94.6177 84.862 94.2499 84.8749H82.5311V80.1874H84.8749C85.4965 80.1874 86.0926 79.9405 86.5322 79.5009C86.9717 79.0614 87.2186 78.4652 87.2186 77.8436C87.2186 77.222 86.9717 76.6259 86.5322 76.1864C86.0926 75.7468 85.4965 75.4999 84.8749 75.4999H47.3749C46.7533 75.4999 46.1571 75.7468 45.7176 76.1864C45.2781 76.6259 45.0311 77.222 45.0311 77.8436C45.0311 78.4652 45.2781 79.0614 45.7176 79.5009C46.1571 79.9405 46.7533 80.1874 47.3749 80.1874H49.7186V84.8749H33.8749C31.1117 81.88 29.0545 78.3042 27.8544 74.4101C26.6543 70.516 26.3418 66.4026 26.9398 62.3719C27.5377 58.3411 29.031 54.4956 31.31 51.1176C33.5889 47.7397 36.5957 44.9151 40.1093 42.8514L44.7968 53.2811C44.9816 53.6923 45.2811 54.0415 45.6594 54.2868C46.0377 54.5321 46.4787 54.663 46.9296 54.664C47.2612 54.6624 47.5887 54.5905 47.8905 54.453L50.0233 53.4921L54.828 64.203C55.0145 64.6179 55.3176 64.9695 55.7005 65.2151C56.0834 65.4606 56.5294 65.5894 56.9843 65.5858C57.308 65.581 57.6272 65.5092 57.9218 65.3749L66.4765 61.4374C66.7582 61.3129 67.0127 61.1341 67.2252 60.9112C67.4378 60.6882 67.6044 60.4256 67.7154 60.1383C67.8264 59.851 67.8797 59.5446 67.8722 59.2366C67.8647 58.9287 67.7966 58.6252 67.6718 58.3436L62.8671 47.6561L64.9999 46.6952C65.2825 46.5686 65.5372 46.3873 65.7493 46.1617C65.9615 45.9362 66.1268 45.6708 66.2357 45.3809C66.3447 45.0911 66.3952 44.7825 66.3842 44.4731C66.3732 44.1636 66.301 43.8594 66.1718 43.578L54.6405 18.0311C54.3623 17.5026 53.8929 17.1002 53.328 16.9061C52.7574 16.6717 52.1174 16.6717 51.5468 16.9061L49.414 17.8671L45.5702 9.26551C45.8518 9.13932 46.1058 8.95889 46.3177 8.73453C46.5296 8.51017 46.6953 8.24627 46.8052 7.95791C46.9151 7.66954 46.9671 7.36234 46.9583 7.05386C46.9495 6.74539 46.88 6.44166 46.7538 6.16004C46.6276 5.87842 46.4472 5.62441 46.2228 5.41251C45.9985 5.20062 45.7346 5.03499 45.4462 4.92508C45.1578 4.81517 44.8506 4.76314 44.5422 4.77195C44.2337 4.78077 43.93 4.85025 43.6483 4.97645L30.8046 10.7421C30.3165 10.9644 29.9195 11.3474 29.6797 11.8272C29.44 12.307 29.372 12.8545 29.4872 13.3783C29.6024 13.9021 29.8937 14.3706 30.3126 14.7055C30.7315 15.0404 31.2526 15.2215 31.789 15.2186C32.111 15.2212 32.4302 15.1574 32.7265 15.0311L36.5702 23.5624L34.4374 24.5233C34.1548 24.6499 33.9001 24.8312 33.688 25.0568C33.4758 25.2824 33.3105 25.5477 33.2015 25.8376C33.0926 26.1274 33.0421 26.436 33.0531 26.7455C33.0641 27.0549 33.1363 27.3591 33.2655 27.6405L34.3671 29.9843L32.0233 31.3202C31.7613 31.483 31.534 31.6958 31.3544 31.9466C31.1748 32.1974 31.0465 32.4812 30.9769 32.7817C30.9072 33.0822 30.8975 33.3934 30.9484 33.6977C30.9993 34.0019 31.1097 34.2931 31.2733 34.5546C31.4361 34.8166 31.649 35.0439 31.8998 35.2235C32.1506 35.4031 32.4343 35.5314 32.7348 35.601C33.0353 35.6707 33.3466 35.6804 33.6508 35.6295C33.955 35.5786 34.2462 35.4682 34.5077 35.3046C35.0936 34.9296 35.6796 34.6014 36.2421 34.2733L38.1405 38.4921C32.3307 41.7813 27.6974 46.8082 24.8917 52.8664C22.086 58.9246 21.2489 65.7096 22.498 72.2681C23.7471 78.8265 27.0196 84.8288 31.8558 89.4316C36.6919 94.0343 42.8486 97.0062 49.4608 97.9296V102.617C42.412 101.757 35.7704 98.8481 30.3593 94.2499C30.2402 94.1339 30.115 94.0244 29.9843 93.9218C24.1825 88.8426 20.129 82.0641 18.3997 74.5496C16.6705 67.035 17.3534 59.1666 20.3515 52.0624C21.9345 48.3787 24.1032 44.9753 26.7733 41.9843C26.9925 41.7561 27.1632 41.4859 27.2751 41.19C27.3871 40.894 27.438 40.5785 27.4247 40.2624C27.4114 39.9463 27.3343 39.6362 27.198 39.3507C27.0616 39.0652 26.8689 38.8102 26.6314 38.6012C26.3938 38.3922 26.1165 38.2334 25.8159 38.1345C25.5154 38.0356 25.198 37.9985 24.8828 38.0255C24.5675 38.0525 24.261 38.1431 23.9817 38.2918C23.7025 38.4404 23.4562 38.6441 23.2577 38.8905C20.2553 42.2576 17.8175 46.0883 16.039 50.2343C12.6669 58.1053 11.8414 66.834 13.678 75.1976C15.5147 83.5613 19.9215 91.1409 26.2811 96.8749V113C26.2811 113.621 26.5281 114.218 26.9676 114.657C27.4072 115.097 28.0033 115.344 28.6249 115.344C29.2465 115.344 29.8426 115.097 30.2822 114.657C30.7217 114.218 30.9686 113.621 30.9686 113V100.555C37.1275 104.733 44.304 107.163 51.7343 107.586H51.8515C52.4517 107.59 53.0305 107.363 53.4686 106.953C53.7 106.732 53.8838 106.467 54.0088 106.173C54.1337 105.878 54.1972 105.562 54.1952 105.242V98.9374H63.7811V115.344C63.7811 118.452 65.0158 121.432 67.2135 123.63C69.4112 125.828 72.3919 127.062 75.4999 127.062H124.719C126.583 127.062 128.372 127.803 129.69 129.122C131.009 130.44 131.75 132.229 131.75 134.094V136.437H105.969C105.347 136.437 104.751 136.684 104.311 137.124C103.872 137.563 103.625 138.16 103.625 138.781C103.625 139.403 103.872 139.999 104.311 140.438C104.751 140.878 105.347 141.125 105.969 141.125H108.312V145.812C108.312 146.434 108.559 147.03 108.999 147.47C109.438 147.909 110.035 148.156 110.656 148.156H122.375C122.996 148.156 123.593 147.909 124.032 147.47C124.472 147.03 124.719 146.434 124.719 145.812V141.125H134.094C134.715 141.125 135.311 140.878 135.751 140.438C136.19 139.999 136.437 139.403 136.437 138.781V134.094C136.437 130.986 135.203 128.005 133.005 125.807C130.807 123.61 127.827 122.375 124.719 122.375ZM77.8436 80.1874V82.5311H54.4061V80.1874H77.8436ZM58.1561 60.1249L54.4061 51.5702L58.578 49.7186L62.4218 58.2499L58.1561 60.1249ZM41.2811 11.1874L45.0311 19.7421L40.8593 21.5936L37.0155 13.1093L41.2811 11.1874ZM60.9452 43.4608L48.1015 49.2265L38.4921 27.8514L51.3358 22.0858L60.9452 43.4608ZM120.031 143.469H113V141.125H120.031V143.469Z" fill="#0CB408"/>
<path d="M59.0938 122.375C59.0938 120.057 58.4065 117.792 57.1188 115.864C55.8311 113.937 54.0009 112.435 51.8596 111.548C49.7183 110.661 47.362 110.429 45.0888 110.881C42.8156 111.334 40.7275 112.45 39.0886 114.089C37.4497 115.727 36.3336 117.816 35.8814 120.089C35.4293 122.362 35.6613 124.718 36.5483 126.86C37.4353 129.001 38.9373 130.831 40.8644 132.119C42.7916 133.406 45.0573 134.094 47.375 134.094C50.483 134.094 53.4637 132.859 55.6614 130.661C57.8591 128.464 59.0938 125.483 59.0938 122.375ZM40.3438 122.375C40.3565 120.726 40.9485 119.134 42.0161 117.877C43.0836 116.621 44.559 115.779 46.1841 115.5C47.8093 115.221 49.4809 115.521 50.9067 116.35C52.3326 117.178 53.4219 118.481 53.9844 120.031H49.7188C49.0972 120.031 48.501 120.278 48.0615 120.718C47.6219 121.157 47.375 121.753 47.375 122.375C47.375 122.997 47.6219 123.593 48.0615 124.032C48.501 124.472 49.0972 124.719 49.7188 124.719H53.9844C53.4219 126.269 52.3326 127.572 50.9067 128.4C49.4809 129.229 47.8093 129.529 46.1841 129.25C44.559 128.971 43.0836 128.129 42.0161 126.873C40.9485 125.616 40.3565 124.024 40.3438 122.375Z" fill="#0CB408"/>
<path d="M143.469 40.3438C142.847 40.3438 142.251 40.5907 141.811 41.0302C141.372 41.4698 141.125 42.0659 141.125 42.6875H136.273C136.042 40.1728 135.384 37.7159 134.328 35.4219L138.523 33.0781C138.73 33.4358 139.027 33.7325 139.385 33.9383C139.743 34.1441 140.15 34.2516 140.562 34.25C140.975 34.2457 141.379 34.1325 141.734 33.9219C142.27 33.6127 142.663 33.104 142.825 32.5069C142.987 31.9097 142.907 31.2725 142.602 30.7344L140.258 26.6562C139.947 26.1155 139.434 25.7203 138.832 25.5577C138.23 25.395 137.588 25.4783 137.047 25.7891C136.506 26.0999 136.111 26.6128 135.948 27.2149C135.786 27.8171 135.869 28.4592 136.18 29L131.984 31.3437C130.529 29.2787 128.729 27.479 126.664 26.0234L129.008 21.8281C129.546 22.1337 130.183 22.214 130.78 22.0515C131.377 21.8891 131.886 21.497 132.195 20.9609C132.503 20.4256 132.587 19.7905 132.429 19.1937C132.271 18.5969 131.884 18.0865 131.352 17.7734L127.273 15.4297C126.738 15.1222 126.103 15.0383 125.506 15.1963C124.909 15.3542 124.399 15.7413 124.086 16.2734C123.93 16.5395 123.828 16.8338 123.786 17.1394C123.744 17.4449 123.763 17.7558 123.841 18.0541C123.92 18.3524 124.056 18.6322 124.243 18.8777C124.43 19.1231 124.663 19.3293 124.93 19.4844L122.539 23.9375C122.058 23.8916 121.575 23.9953 121.156 24.2344C120.736 24.4736 120.401 24.8364 120.195 25.2734C120.065 25.5534 119.992 25.8563 119.979 26.1647C119.967 26.4731 120.015 26.781 120.122 27.0706C120.229 27.3603 120.391 27.626 120.601 27.8525C120.811 28.079 121.063 28.2619 121.344 28.3906C121.686 28.5438 122.015 28.7241 122.328 28.9297C125.192 30.5143 127.579 32.8369 129.242 35.6562C130.886 38.507 131.751 41.7403 131.75 45.0312C131.739 48.3209 130.868 51.5505 129.223 54.3996C127.579 57.2488 125.218 59.6184 122.375 61.2734C119.518 62.8987 116.287 63.7533 113 63.7533C109.713 63.7533 106.482 62.8987 103.625 61.2734C100.76 59.6435 98.3877 57.2712 96.7578 54.4062C95.1136 51.5555 94.2487 48.3222 94.25 45.0312C94.261 41.7416 95.132 38.512 96.7766 35.6629C98.4211 32.8137 100.782 30.4441 103.625 28.7891C106.476 27.1449 109.709 26.28 113 26.2812C113.622 26.2813 114.218 26.0343 114.657 25.5948C115.097 25.1552 115.344 24.5591 115.344 23.9375V16.9062C115.965 16.9062 116.561 16.6593 117.001 16.2198C117.441 15.7802 117.688 15.1841 117.688 14.5625C117.688 13.9409 117.441 13.3448 117.001 12.9052C116.561 12.4657 115.965 12.2188 115.344 12.2188H110.656C110.035 12.2188 109.439 12.4657 108.999 12.9052C108.559 13.3448 108.312 13.9409 108.312 14.5625C108.312 15.1841 108.559 15.7802 108.999 16.2198C109.439 16.6593 110.035 16.9062 110.656 16.9062V21.7578C108.142 21.9895 105.685 22.6474 103.391 23.7031L101.047 19.5078C101.313 19.3527 101.547 19.1466 101.734 18.9011C101.92 18.6557 102.057 18.3758 102.135 18.0775C102.214 17.7792 102.232 17.4684 102.19 17.1628C102.148 16.8572 102.047 16.563 101.891 16.2969C101.578 15.7648 101.067 15.3777 100.47 15.2197C99.8735 15.0617 99.2385 15.1456 98.7031 15.4531L94.625 17.7969C94.1851 18.0579 93.8426 18.4556 93.6498 18.9294C93.4571 19.4032 93.4246 19.9271 93.5574 20.4211C93.6902 20.915 93.9809 21.352 94.3853 21.6653C94.7896 21.9786 95.2854 22.151 95.7969 22.1562C96.2074 22.1591 96.6116 22.054 96.9687 21.8516L99.3125 26.0469C97.2474 27.5025 95.4478 29.3021 93.9922 31.3672L89.7969 29.0234C90.0771 28.4878 90.1395 27.8646 89.9711 27.284C89.8026 26.7035 89.4164 26.2104 88.893 25.9079C88.3697 25.6054 87.7497 25.5168 87.1625 25.6606C86.5754 25.8044 86.0665 26.1695 85.7422 26.6797L83.3984 30.7578C83.0909 31.2931 83.007 31.9282 83.165 32.525C83.323 33.1218 83.7101 33.6322 84.2422 33.9453C84.5971 34.156 85.0014 34.2692 85.4141 34.2734C85.8271 34.2751 86.2331 34.1676 86.5912 33.9618C86.9493 33.756 87.2466 33.4592 87.4531 33.1016L91.6484 35.4453C90.5927 37.7393 89.9348 40.1963 89.7031 42.7109H84.875C84.875 42.0893 84.6281 41.4932 84.1885 41.0537C83.749 40.6141 83.1529 40.3672 82.5312 40.3672C81.9096 40.3672 81.3135 40.6141 80.874 41.0537C80.4344 41.4932 80.1875 42.0893 80.1875 42.7109V47.3984C80.1875 48.02 80.4344 48.6162 80.874 49.0557C81.3135 49.4953 81.9096 49.7422 82.5312 49.7422C83.1529 49.7422 83.749 49.4953 84.1885 49.0557C84.6281 48.6162 84.875 48.02 84.875 47.3984H89.7266C89.9583 49.9131 90.6161 52.37 91.6719 54.6641L87.4766 57.0078C87.3215 56.7412 87.1153 56.5078 86.8699 56.3211C86.6244 56.1343 86.3445 55.9978 86.0462 55.9194C85.7479 55.841 85.4371 55.8223 85.1315 55.8643C84.826 55.9062 84.5317 56.0081 84.2656 56.1641C83.7335 56.4771 83.3464 56.9875 83.1884 57.5844C83.0305 58.1812 83.1143 58.8162 83.4219 59.3516L85.7656 63.4297C85.9701 63.7839 86.2638 64.0785 86.6174 64.284C86.971 64.4896 87.3722 64.5991 87.7813 64.6016C88.194 64.5973 88.5982 64.4841 88.9531 64.2734C89.4892 63.9642 89.8813 63.4556 90.0437 62.8584C90.2062 62.2613 90.1259 61.6241 89.8203 61.0859L94.0156 58.7422C95.4712 60.8073 97.2708 62.6069 99.3359 64.0625L96.9922 68.2578C96.4514 67.947 95.8093 67.8638 95.2071 68.0264C94.605 68.189 94.092 68.5842 93.7812 69.125C93.4704 69.6658 93.3872 70.3079 93.5498 70.9101C93.7125 71.5122 94.1076 72.0251 94.6484 72.3359L98.7266 74.6797C99.2647 74.9852 99.9019 75.0656 100.499 74.9031C101.096 74.7406 101.605 74.3486 101.914 73.8125C102.07 73.5464 102.172 73.2521 102.214 72.9466C102.256 72.641 102.237 72.3302 102.159 72.0319C102.08 71.7336 101.944 71.4537 101.757 71.2082C101.57 70.9628 101.337 70.7566 101.07 70.6016L103.414 66.4063C105.708 67.462 108.165 68.1198 110.68 68.3516V73.1562C110.058 73.1562 109.462 73.4032 109.022 73.8427C108.583 74.2823 108.336 74.8784 108.336 75.5C108.336 76.1216 108.583 76.7177 109.022 77.1573C109.462 77.5968 110.058 77.8438 110.68 77.8438H115.367C115.989 77.8438 116.585 77.5968 117.024 77.1573C117.464 76.7177 117.711 76.1216 117.711 75.5C117.711 74.8784 117.464 74.2823 117.024 73.8427C116.585 73.4032 115.989 73.1562 115.367 73.1562V68.3047C117.882 68.073 120.339 67.4151 122.633 66.3594L124.977 70.5547C124.71 70.7098 124.477 70.9159 124.29 71.1614C124.103 71.4068 123.967 71.6867 123.888 71.985C123.81 72.2833 123.791 72.5941 123.833 72.8997C123.875 73.2053 123.977 73.4995 124.133 73.7656C124.442 74.3017 124.951 74.6938 125.548 74.8562C126.145 75.0187 126.782 74.9384 127.32 74.6328L131.398 72.2891C131.939 71.9783 132.334 71.4654 132.497 70.8632C132.66 70.261 132.576 69.6189 132.266 69.0781C131.955 68.5373 131.442 68.1422 130.84 67.9795C130.238 67.8169 129.595 67.9001 129.055 68.2109L126.711 64.0156C128.776 62.56 130.576 60.7604 132.031 58.6953L136.227 61.0391C135.921 61.5772 135.841 62.2144 136.003 62.8116C136.166 63.4087 136.558 63.9174 137.094 64.2266C137.36 64.3825 137.654 64.4844 137.96 64.5264C138.265 64.5683 138.576 64.5496 138.874 64.4712C139.173 64.3928 139.453 64.2563 139.698 64.0696C139.943 63.8828 140.15 63.6494 140.305 63.3828L142.648 59.3047C142.802 59.0369 142.902 58.7415 142.942 58.4352C142.981 58.1289 142.96 57.8178 142.88 57.5196C142.799 57.2215 142.661 56.9421 142.472 56.6974C142.284 56.4528 142.049 56.2476 141.781 56.0937C141.513 55.9399 141.218 55.8402 140.912 55.8005C140.605 55.7608 140.294 55.7818 139.996 55.8623C139.698 55.9429 139.419 56.0813 139.174 56.2698C138.929 56.4583 138.724 56.6932 138.57 56.9609L134.375 54.6172C135.431 52.3232 136.089 49.8662 136.32 47.3516H141.125C141.125 47.9732 141.372 48.5693 141.811 49.0088C142.251 49.4484 142.847 49.6953 143.469 49.6953C144.09 49.6953 144.686 49.4484 145.126 49.0088C145.566 48.5693 145.812 47.9732 145.812 47.3516V42.6875C145.812 42.0659 145.566 41.4698 145.126 41.0302C144.686 40.5907 144.09 40.3438 143.469 40.3438Z" fill="#0CB408"/>
<path d="M103.625 52.0625C105.016 52.0625 106.375 51.6501 107.531 50.8775C108.688 50.1049 109.589 49.0068 110.121 47.722C110.653 46.4372 110.792 45.0235 110.521 43.6595C110.25 42.2956 109.58 41.0427 108.597 40.0594C107.614 39.0761 106.361 38.4064 104.997 38.1351C103.633 37.8638 102.219 38.003 100.934 38.5352C99.6495 39.0674 98.5513 39.9686 97.7787 41.1249C97.0061 42.2812 96.5938 43.6406 96.5938 45.0313C96.5954 46.2752 96.927 47.4964 97.5547 48.5703C97.8718 49.1048 98.3882 49.4915 98.9903 49.6453C99.5924 49.7992 100.231 49.7076 100.766 49.3906C101.083 49.2101 101.349 48.952 101.539 48.6406C101.368 48.9742 101.28 49.3439 101.281 49.7188C101.281 50.3404 101.528 50.9365 101.968 51.376C102.407 51.8156 103.003 52.0625 103.625 52.0625ZM101.281 45.0313C101.281 44.5677 101.419 44.1146 101.676 43.7291C101.934 43.3437 102.3 43.0433 102.728 42.8659C103.156 42.6885 103.628 42.6421 104.082 42.7325C104.537 42.823 104.955 43.0462 105.282 43.374C105.61 43.7017 105.833 44.1194 105.924 44.574C106.014 45.0287 105.968 45.4999 105.79 45.9282C105.613 46.3564 105.313 46.7225 104.927 46.98C104.542 47.2375 104.089 47.375 103.625 47.375C103.233 47.3757 102.847 47.4747 102.503 47.6631C102.159 47.8514 101.868 48.1231 101.656 48.4531C101.862 48.0968 101.97 47.6927 101.97 47.2813C101.97 46.8698 101.862 46.4657 101.656 46.1094C101.444 45.7864 101.315 45.416 101.281 45.0313Z" fill="#0CB408"/>
<path d="M118.859 28.625C117.701 28.625 116.568 28.9686 115.604 29.6125C114.641 30.2563 113.889 31.1714 113.446 32.2421C113.003 33.3127 112.887 34.4909 113.113 35.6275C113.339 36.7641 113.897 37.8081 114.716 38.6276C115.536 39.447 116.58 40.0051 117.716 40.2312C118.853 40.4572 120.031 40.3412 121.102 39.8977C122.172 39.4542 123.087 38.7032 123.731 37.7397C124.375 36.7761 124.719 35.6432 124.719 34.4844C124.719 32.9304 124.101 31.44 123.003 30.3412C121.904 29.2423 120.413 28.625 118.859 28.625ZM118.859 35.6562C118.628 35.6562 118.401 35.5875 118.208 35.4588C118.016 35.33 117.865 35.147 117.777 34.9328C117.688 34.7187 117.665 34.4831 117.71 34.2558C117.755 34.0284 117.867 33.8196 118.031 33.6557C118.195 33.4918 118.403 33.3802 118.631 33.335C118.858 33.2898 119.094 33.313 119.308 33.4017C119.522 33.4904 119.705 33.6406 119.834 33.8333C119.963 34.026 120.031 34.2526 120.031 34.4844C120.031 34.7952 119.908 35.0932 119.688 35.313C119.468 35.5328 119.17 35.6562 118.859 35.6562Z" fill="#0CB408"/>
<path d="M118.859 47.375C117.701 47.375 116.568 47.7186 115.604 48.3625C114.641 49.0063 113.889 49.9214 113.446 50.9921C113.003 52.0627 112.887 53.2409 113.113 54.3775C113.339 55.5141 113.897 56.5581 114.716 57.3776C115.536 58.197 116.58 58.7551 117.716 58.9812C118.853 59.2072 120.031 59.0912 121.102 58.6477C122.172 58.2042 123.087 57.4532 123.731 56.4897C124.375 55.5261 124.719 54.3932 124.719 53.2344C124.719 51.6804 124.101 50.19 123.003 49.0912C121.904 47.9923 120.413 47.375 118.859 47.375ZM118.859 54.4062C118.628 54.4062 118.401 54.3375 118.208 54.2088C118.016 54.08 117.865 53.897 117.777 53.6828C117.688 53.4687 117.665 53.2331 117.71 53.0058C117.755 52.7784 117.867 52.5696 118.031 52.4057C118.195 52.2418 118.403 52.1302 118.631 52.085C118.858 52.0398 119.094 52.063 119.308 52.1517C119.522 52.2404 119.705 52.3906 119.834 52.5833C119.963 52.776 120.031 53.0026 120.031 53.2344C120.031 53.5452 119.908 53.8432 119.688 54.063C119.468 54.2828 119.17 54.4062 118.859 54.4062Z" fill="#0CB408"/>
</svg>
