<svg xmlns="http://www.w3.org/2000/svg" version="1.1" xmlns:xlink="http://www.w3.org/1999/xlink" width="512" height="512" x="0" y="0" viewBox="0 0 53 60" style="enable-background:new 0 0 512 512" xml:space="preserve" class=""><g><g fill="#000" fill-rule="nonzero"><path d="M6 15a1 1 0 0 0 1-1v-2.586l4.086 4.086-1.793 1.793a1 1 0 1 0 1.414 1.414l1.793-1.793 1.793 1.793a1 1 0 0 0 1.414-1.414L13.914 15.5l1.793-1.793a1 1 0 0 0-1.414-1.414L12.5 14.086l-3.111-3.111A3 3 0 0 0 9 5H7a2 2 0 0 0-2 2v7a1 1 0 0 0 1 1zm1-8h2a1 1 0 1 1 0 2H7z" fill="#ffffff" opacity="1" data-original="#000000" class=""></path><path d="M53 43a5.974 5.974 0 0 0-1.754-4.249A5.913 5.913 0 0 0 50 37.828V14.66a5.035 5.035 0 0 0-1.463-3.537l-9.66-9.66A5.035 5.035 0 0 0 35.34 0H3a3 3 0 0 0-3 3v54a3 3 0 0 0 3 3h44a6 6 0 0 0 2.8-11.3l1.45-1.449A5.972 5.972 0 0 0 53 43zm-6.414-31H39a1 1 0 0 1-1-1V3.414zM2 57V3a1 1 0 0 1 1-1h32.34c.222.002.444.03.66.081V11a3 3 0 0 0 3 3h8.919c.051.216.079.438.081.66V37.1a6.007 6.007 0 0 0-5.247 1.653L33.506 48H33a5.99 5.99 0 0 0-4.46 10H3a1 1 0 0 1-1-1zm34.334-9 2.176-2.176L40.686 48zM29 54a4 4 0 0 1 4-4h6v8h-6a4 4 0 0 1-4-4zm22 0a4 4 0 0 1-4 4h-6v-8h6a4 4 0 0 1 4 4zm-1.167-8.167-2.2 2.2A6.009 6.009 0 0 0 47 48h-3.486l-3.59-3.59 4.242-4.241a4.025 4.025 0 0 1 5.667 0 4.022 4.022 0 0 1 0 5.666z" fill="#ffffff" opacity="1" data-original="#000000" class=""></path><path d="M39 29h2a2 2 0 0 0 2-2v-2a2 2 0 0 0-2-2h-2a2 2 0 0 0-2 2v2a2 2 0 0 0 2 2zm0-4h2v2h-2zM6 25h12a1 1 0 0 0 0-2H6a1 1 0 0 0 0 2zM22 25h10a1 1 0 0 0 0-2H22a1 1 0 0 0 0 2zM6 29h26a1 1 0 0 0 0-2H6a1 1 0 0 0 0 2zM39 38h2a2 2 0 0 0 2-2v-2a2 2 0 0 0-2-2h-2a2 2 0 0 0-2 2v2a2 2 0 0 0 2 2zm0-4h2v2h-2zM6 34h12a1 1 0 0 0 0-2H6a1 1 0 0 0 0 2zM32 32H22a1 1 0 0 0 0 2h10a1 1 0 0 0 0-2zM6 38h26a1 1 0 0 0 0-2H6a1 1 0 0 0 0 2zM6 43h12a1 1 0 0 0 0-2H6a1 1 0 0 0 0 2zM32 41H22a1 1 0 0 0 0 2h10a1 1 0 0 0 0-2zM33 46a1 1 0 0 0-1-1H6a1 1 0 0 0 0 2h26a1 1 0 0 0 1-1z" fill="#ffffff" opacity="1" data-original="#000000" class=""></path></g></g></svg>