<svg width="388" height="368" viewBox="0 0 388 368" fill="none" xmlns="http://www.w3.org/2000/svg">
<path d="M240.933 271.584V111.883C240.933 110.468 240.371 109.112 239.37 108.111C238.37 107.111 237.014 106.549 235.599 106.549H26.9912C25.5767 106.549 24.2202 107.111 23.22 108.111C22.2198 109.112 21.6579 110.468 21.6579 111.883V271.584C21.6579 272.998 22.2198 274.355 23.22 275.355C24.2202 276.355 25.5767 276.917 26.9912 276.917H235.599C237.014 276.917 238.37 276.355 239.37 275.355C240.371 274.355 240.933 272.998 240.933 271.584ZM230.266 266.251H32.3245V117.216H230.266V266.251ZM232.101 341.771C232.101 342.825 231.788 343.857 231.202 344.734C230.616 345.611 229.783 346.294 228.808 346.698C227.834 347.102 226.761 347.207 225.727 347.001C224.692 346.796 223.742 346.288 222.996 345.542C222.25 344.796 221.742 343.846 221.536 342.811C221.331 341.777 221.436 340.704 221.84 339.73C222.244 338.755 222.927 337.922 223.804 337.336C224.681 336.75 225.712 336.437 226.767 336.437C227.47 336.433 228.167 336.568 228.818 336.834C229.469 337.1 230.061 337.492 230.559 337.988C231.058 338.484 231.454 339.073 231.724 339.722C231.994 340.371 232.133 341.068 232.133 341.771H232.101ZM41.1672 341.771C41.1672 342.825 40.8544 343.857 40.2684 344.734C39.6823 345.611 38.8494 346.294 37.8748 346.698C36.9003 347.102 35.828 347.207 34.7934 347.001C33.7588 346.796 32.8085 346.288 32.0626 345.542C31.3167 344.796 30.8088 343.846 30.603 342.811C30.3972 341.777 30.5028 340.704 30.9065 339.73C31.3102 338.755 31.9938 337.922 32.8708 337.336C33.7479 336.75 34.779 336.437 35.8339 336.437C37.2465 336.44 38.6003 337.003 39.5982 338.003C40.5961 339.003 41.1565 340.358 41.1565 341.771H41.1672ZM63.3219 341.771C63.3219 342.825 63.0091 343.857 62.423 344.734C61.837 345.611 61.0041 346.294 60.0295 346.698C59.055 347.102 57.9826 347.207 56.9481 347.001C55.9135 346.796 54.9632 346.288 54.2173 345.542C53.4714 344.796 52.9635 343.846 52.7577 342.811C52.5519 341.777 52.6575 340.704 53.0612 339.73C53.4648 338.755 54.1484 337.922 55.0255 337.336C55.9026 336.75 56.9337 336.437 57.9885 336.437C59.4012 336.44 60.755 337.003 61.7529 338.003C62.7508 339.003 63.3219 340.358 63.3219 341.771ZM62.1912 201.835C106.589 219.484 156.055 219.484 200.453 201.835C201.105 201.578 201.7 201.195 202.205 200.708C202.709 200.221 203.112 199.64 203.392 198.997C203.671 198.354 203.821 197.662 203.833 196.961C203.845 196.26 203.718 195.564 203.461 194.912L183.759 145.152C183.237 143.838 182.214 142.786 180.916 142.226C179.618 141.666 178.151 141.644 176.837 142.165C147.605 153.781 115.039 153.781 85.8072 142.165C84.4931 141.644 83.0258 141.666 81.7277 142.226C80.4296 142.786 79.4069 143.838 78.8845 145.152L59.1725 194.912C58.915 195.564 58.7885 196.26 58.8003 196.961C58.8121 197.662 58.962 198.354 59.2413 198.997C59.5207 199.64 59.9241 200.221 60.4284 200.708C60.9328 201.195 61.5388 201.578 62.1912 201.835ZM86.8739 153.941C115.638 164.085 147.006 164.085 175.77 153.941L191.557 193.803C152.647 207.936 110.007 207.936 71.0979 193.803L86.8739 153.941ZM198.501 222.315H212.239C213.654 222.315 215.01 222.877 216.01 223.877C217.011 224.877 217.573 226.233 217.573 227.648C217.573 229.062 217.011 230.419 216.01 231.419C215.01 232.419 213.654 232.981 212.239 232.981H198.49C197.075 232.981 195.719 232.419 194.719 231.419C193.718 230.419 193.157 229.062 193.157 227.648C193.157 226.233 193.718 224.877 194.719 223.877C195.719 222.877 197.075 222.315 198.49 222.315H198.501ZM217.583 245.6C217.583 247.014 217.021 248.371 216.021 249.371C215.021 250.371 213.664 250.933 212.25 250.933H178.33C176.915 250.933 175.559 250.371 174.559 249.371C173.558 248.371 172.997 247.014 172.997 245.6C172.997 244.185 173.558 242.829 174.559 241.829C175.559 240.828 176.915 240.267 178.33 240.267H212.239C213.654 240.267 215.01 240.828 216.01 241.829C217.011 242.829 217.573 244.185 217.573 245.6H217.583ZM210.703 342.112C210.703 343.526 210.141 344.883 209.141 345.883C208.141 346.883 206.784 347.445 205.37 347.445H170.533C169.118 347.445 167.762 346.883 166.761 345.883C165.761 344.883 165.199 343.526 165.199 342.112C165.199 340.697 165.761 339.341 166.761 338.341C167.762 337.341 169.118 336.779 170.533 336.779H205.338C206.04 336.776 206.736 336.912 207.385 337.178C208.035 337.445 208.625 337.838 209.123 338.333C209.62 338.829 210.015 339.418 210.285 340.066C210.554 340.714 210.703 341.41 210.703 342.112ZM363.237 264.565H318.49C314.956 264.565 311.566 263.162 309.066 260.664C306.565 258.166 305.159 254.777 305.157 251.243V238.837C305.159 235.302 306.565 231.912 309.065 229.412C311.565 226.912 314.955 225.507 318.49 225.504H330.842C337.202 225.495 343.299 222.965 347.796 218.468C352.293 213.971 354.823 207.874 354.831 201.515V163.04H356.965C361.148 163.037 365.159 161.374 368.117 158.416C371.075 155.458 372.738 151.447 372.741 147.264V108.864C374.657 107.719 376.302 106.173 377.564 104.332C378.825 102.49 379.672 100.398 380.047 98.1972L380.634 94.5386C380.99 92.2863 380.854 89.9836 380.234 87.7891C379.615 85.5946 378.527 83.5604 377.046 81.8268C375.565 80.0931 373.725 78.7012 371.654 77.7468C369.583 76.7924 367.33 76.2983 365.05 76.2986H332.666C330.386 76.3002 328.134 76.7954 326.064 77.7504C323.994 78.7053 322.155 80.0973 320.674 81.8305C319.193 83.5637 318.106 85.5971 317.485 87.7909C316.865 89.9846 316.728 92.2866 317.082 94.5386L317.669 98.1972C318.039 100.407 318.886 102.51 320.149 104.361C321.413 106.212 323.063 107.767 324.986 108.917V147.317C324.989 151.5 326.652 155.511 329.61 158.469C332.568 161.427 336.579 163.09 340.762 163.093H344.133V201.568C344.13 205.1 342.725 208.487 340.227 210.985C337.729 213.483 334.342 214.888 330.81 214.891H318.49C312.127 214.899 306.028 217.43 301.529 221.929C297.03 226.428 294.498 232.528 294.49 238.891V251.2C294.501 257.561 297.034 263.658 301.532 268.154C306.031 272.651 312.129 275.181 318.49 275.189H363.226C366.762 275.189 370.153 276.594 372.654 279.094C375.154 281.595 376.559 284.986 376.559 288.523C376.559 292.059 375.154 295.45 372.654 297.951C370.153 300.451 366.762 301.856 363.226 301.856H236.666V297.589C243.447 297.204 249.825 294.245 254.499 289.317C259.173 284.389 261.791 277.864 261.818 271.072V112.331C261.818 105.258 259.008 98.4754 254.007 93.4744C249.006 88.4734 242.224 85.6639 235.151 85.6639H27.4499C20.3774 85.6639 13.5947 88.4734 8.59369 93.4744C3.59272 98.4754 0.783203 105.258 0.783203 112.331V271.136C0.810276 277.928 3.4279 284.453 8.10196 289.381C12.776 294.309 19.1543 297.268 25.9352 297.653V316.267H16.7832C12.5397 316.267 8.47007 317.952 5.46949 320.953C2.46891 323.953 0.783203 328.023 0.783203 332.267V351.253C0.783203 355.497 2.46891 359.566 5.46949 362.567C8.47007 365.568 12.5397 367.253 16.7832 367.253H245.839C250.083 367.253 254.152 365.568 257.153 362.567C260.154 359.566 261.839 355.497 261.839 351.253V332.267C261.839 328.023 260.154 323.953 257.153 320.953C254.152 317.952 250.083 316.267 245.839 316.267H236.666V312.533H363.226C369.591 312.533 375.696 310.005 380.196 305.504C384.697 301.003 387.226 294.898 387.226 288.533C387.226 282.168 384.697 276.064 380.196 271.563C375.696 267.062 369.591 264.533 363.226 264.533L363.237 264.565ZM328.815 88.7359C329.286 88.1716 329.875 87.7177 330.54 87.4062C331.205 87.0946 331.931 86.9332 332.666 86.9333H365.071C365.809 86.9336 366.537 87.0937 367.207 87.4024C367.877 87.7111 368.472 88.1611 368.951 88.7215C369.431 89.282 369.783 89.9395 369.984 90.6491C370.185 91.3586 370.23 92.1033 370.117 92.8319L369.53 96.4906C369.337 97.685 368.723 98.7712 367.8 99.5534C366.877 100.336 365.705 100.763 364.495 100.757H333.285C332.073 100.765 330.898 100.339 329.973 99.5569C329.048 98.7744 328.433 97.6868 328.239 96.4906L327.653 92.8426C327.537 92.1147 327.582 91.3705 327.782 90.6614C327.983 89.9524 328.336 89.2954 328.815 88.7359ZM335.685 147.264V111.467H362.127V147.243C362.124 148.597 361.585 149.895 360.628 150.852C359.67 151.81 358.372 152.349 357.018 152.352H340.794C339.443 152.349 338.149 151.813 337.192 150.86C336.235 149.907 335.693 148.614 335.685 147.264ZM11.4499 271.136V112.331C11.4499 108.087 13.1356 104.017 16.1362 101.017C19.1367 98.0163 23.2064 96.3306 27.4499 96.3306H235.173C239.416 96.3306 243.486 98.0163 246.486 101.017C249.487 104.017 251.173 108.087 251.173 112.331V271.136C251.173 275.379 249.487 279.449 246.486 282.45C243.486 285.45 239.416 287.136 235.173 287.136H27.4499C23.2064 287.136 19.1367 285.45 16.1362 282.45C13.1356 279.449 11.4499 275.379 11.4499 271.136ZM251.173 332.267V351.253C251.173 352.668 250.611 354.024 249.61 355.025C248.61 356.025 247.254 356.587 245.839 356.587H16.7832C15.3687 356.587 14.0122 356.025 13.012 355.025C12.0118 354.024 11.4499 352.668 11.4499 351.253V332.267C11.4499 330.852 12.0118 329.496 13.012 328.495C14.0122 327.495 15.3687 326.933 16.7832 326.933H245.839C247.254 326.933 248.61 327.495 249.61 328.495C250.611 329.496 251.173 330.852 251.173 332.267ZM36.6019 316.267V297.803H225.999V316.267H36.6019ZM361.178 56.7359C361.603 57.3057 361.91 57.9546 362.08 58.6446C362.251 59.3346 362.282 60.0517 362.171 60.7538C362.06 61.4559 361.811 62.1289 361.436 62.7331C361.062 63.3373 360.571 63.8606 359.991 64.2722C359.412 64.6839 358.756 64.9755 358.062 65.1301C357.369 65.2846 356.651 65.299 355.952 65.1723C355.252 65.0455 354.585 64.7803 353.99 64.3921C353.394 64.004 352.883 63.5007 352.485 62.9119C352.072 62.3476 351.531 61.8886 350.908 61.5722C350.284 61.2559 349.595 61.091 348.895 61.091C348.196 61.091 347.506 61.2559 346.883 61.5722C346.259 61.8886 345.719 62.3476 345.306 62.9119C344.908 63.5007 344.396 64.004 343.801 64.3921C343.205 64.7803 342.538 65.0455 341.839 65.1723C341.139 65.299 340.422 65.2846 339.728 65.1301C339.034 64.9755 338.378 64.6839 337.799 64.2722C337.22 63.8606 336.728 63.3373 336.354 62.7331C335.98 62.1289 335.73 61.4559 335.619 60.7538C335.509 60.0517 335.54 59.3346 335.71 58.6446C335.881 57.9546 336.188 57.3057 336.613 56.7359C338.064 54.8604 339.926 53.3421 342.055 52.2975C344.184 51.253 346.524 50.7099 348.895 50.7099C351.267 50.7099 353.607 51.253 355.736 52.2975C357.865 53.3421 359.727 54.8604 361.178 56.7359ZM320.847 52.0959C320.27 51.6917 319.779 51.1773 319.402 50.5823C319.026 49.9873 318.77 49.3235 318.651 48.6293C318.532 47.9351 318.552 47.2242 318.709 46.5377C318.866 45.8511 319.158 45.2025 319.567 44.6292C322.896 39.9509 327.295 36.1365 332.398 33.5045C337.501 30.8725 343.159 29.4992 348.901 29.4992C354.642 29.4992 360.3 30.8725 365.403 33.5045C370.506 36.1365 374.905 39.9509 378.234 44.6292C378.643 45.2025 378.935 45.8511 379.092 46.5377C379.249 47.2242 379.269 47.9351 379.15 48.6293C379.031 49.3235 378.776 49.9873 378.399 50.5823C378.022 51.1773 377.531 51.6917 376.954 52.0959C376.057 52.7433 374.978 53.0905 373.871 53.0879C373.019 53.0879 372.179 52.8835 371.421 52.4919C370.664 52.1003 370.012 51.5329 369.519 50.8372C367.178 47.5523 364.086 44.8744 360.5 43.0267C356.915 41.179 352.94 40.215 348.906 40.215C344.872 40.215 340.897 41.179 337.311 43.0267C333.726 44.8744 330.633 47.5523 328.293 50.8372C327.887 51.4094 327.372 51.8959 326.778 52.2689C326.184 52.6419 325.523 52.8941 324.831 53.011C324.139 53.1279 323.432 53.1073 322.748 52.9503C322.064 52.7932 321.418 52.5029 320.847 52.0959ZM187.045 51.9466V41.7492C187.045 40.3348 187.606 38.9782 188.607 37.978C189.607 36.9778 190.963 36.4159 192.378 36.4159C193.792 36.4159 195.149 36.9778 196.149 37.978C197.149 38.9782 197.711 40.3348 197.711 41.7492V51.9466C197.711 53.3611 197.149 54.7176 196.149 55.7178C195.149 56.718 193.792 57.2799 192.378 57.2799C190.963 57.2799 189.607 56.718 188.607 55.7178C187.606 54.7176 187.045 53.3611 187.045 51.9466ZM187.045 16.2772V6.07992C187.045 4.66543 187.606 3.30887 188.607 2.30868C189.607 1.30848 190.963 0.746582 192.378 0.746582C193.792 0.746582 195.149 1.30848 196.149 2.30868C197.149 3.30887 197.711 4.66543 197.711 6.07992V16.2772C197.711 17.6917 197.149 19.0483 196.149 20.0485C195.149 21.0487 193.792 21.6106 192.378 21.6106C190.963 21.6106 189.607 21.0487 188.607 20.0485C187.606 19.0483 187.045 17.6917 187.045 16.2772ZM171.109 28.9492C171.109 27.5348 171.67 26.1782 172.671 25.178C173.671 24.1778 175.027 23.6159 176.442 23.6159H179.749C181.163 23.6159 182.52 24.1778 183.52 25.178C184.52 26.1782 185.082 27.5348 185.082 28.9492C185.082 30.3637 184.52 31.7203 183.52 32.7205C182.52 33.7207 181.163 34.2826 179.749 34.2826H176.442C175.027 34.2826 173.671 33.7207 172.671 32.7205C171.67 31.7203 171.109 30.3637 171.109 28.9492ZM199.791 28.9492C199.791 27.5348 200.353 26.1782 201.353 25.178C202.354 24.1778 203.71 23.6159 205.125 23.6159H208.442C209.856 23.6159 211.213 24.1778 212.213 25.178C213.213 26.1782 213.775 27.5348 213.775 28.9492C213.775 30.3637 213.213 31.7203 212.213 32.7205C211.213 33.7207 209.856 34.2826 208.442 34.2826H205.125C203.71 34.2826 202.354 33.7207 201.353 32.7205C200.353 31.7203 199.791 30.3637 199.791 28.9492Z" fill="#FF1313"/>
</svg>
