<svg xmlns="http://www.w3.org/2000/svg" version="1.1" xmlns:xlink="http://www.w3.org/1999/xlink" width="512" height="512" x="0" y="0" viewBox="0 0 512 512" style="enable-background:new 0 0 512 512" xml:space="preserve" class=""><g><path d="M38.52 278c-13.88 0-25.18 11.29-25.18 25.18v171.14c0 13.88 11.29 25.18 25.18 25.18h313.61c7.28 0 13.2-5.92 13.2-13.2v-24.91c0-6.54-4.69-12.03-11.15-13.04l-120.23-18.92c-21.24-3.34-37.92-19.08-42.5-40.09l-19.92-91.5c-2.5-11.49-12.85-19.82-24.6-19.82h-36.67v-18.61h37.19c6.98 0 12.66-5.68 12.66-12.66v-19.42h36.81v2.44c0 4.88 3.12 9.16 7.77 10.66l21.4 6.87c17.66 74.35 83.92 130.1 163.24 131.7v18.97c0 9.01 7.33 16.34 16.34 16.34h76.66c9.01 0 16.34-7.33 16.34-16.34V321.4c0-2.5-1.03-4.93-2.81-6.67l-8.55-8.34a9.259 9.259 0 0 0-6.51-2.65h-73.6c-2.45 0-4.76.94-6.51 2.65l-8.55 8.34a9.361 9.361 0 0 0-2.81 6.67v16.91c-70.44-1.86-127.17-59.74-127.17-130.62S318.89 78.92 389.33 77.06v12.3c0 6.32 5.14 11.46 11.46 11.46h18.76v9.93c0 1.93 1.57 3.5 3.5 3.5s3.5-1.57 3.5-3.5v-9.93h34.89v9.93c0 1.93 1.57 3.5 3.5 3.5s3.5-1.57 3.5-3.5v-9.93h18.76c6.32 0 11.46-5.14 11.46-11.46v-65.4c0-6.32-5.14-11.46-11.46-11.46h-86.4c-6.32 0-11.46 5.14-11.46 11.46v12.4c-79.32 1.6-145.57 57.35-163.24 131.72l-21.4 6.87a11.15 11.15 0 0 0-7.77 10.66v2.44H160.1v-19.42c0-6.98-5.68-12.66-12.66-12.66H33.79c-6.98 0-12.66 5.68-12.66 12.66v78.12c0 6.98 5.68 12.66 12.66 12.66h37.19V278zm357.81 43.39c0-.62.25-1.23.7-1.66l8.55-8.34c.43-.42 1.01-.66 1.62-.66h73.58c.61 0 1.19.23 1.62.66l8.55 8.34c.45.43.7 1.04.7 1.66v5.88h-95.33v-5.88zm0 12.89h95.33v63.69c0 5.15-4.19 9.34-9.34 9.34h-76.66c-5.15 0-9.34-4.19-9.34-9.34v-63.69zm0-310.32c0-2.46 2-4.46 4.46-4.46h86.4c2.46 0 4.46 2 4.46 4.46v12.35h-80.57c-1.93 0-3.5 1.57-3.5 3.5s1.57 3.5 3.5 3.5h80.57v46.05c0 2.46-2 4.46-4.46 4.46H400.78c-2.46 0-4.46-2-4.46-4.46v-65.4zm-7 19.4v26.69c-74.3 1.86-134.17 62.88-134.17 137.63s59.87 135.76 134.17 137.63V372c-89.02-1.87-160.87-74.86-160.87-164.32S300.31 45.23 389.33 43.36zM203.92 191.54v-5.94c0-1.83 1.17-3.43 2.91-3.99l17.59-5.64c-.7 3.74-1.28 7.52-1.74 11.34l-2.92.94c-6.92 2.22-12.48 6.98-15.84 13.04zm-43.82 3.5h36.81v25.28H160.1zm179.62 258.11 13.37 2.1c3.04.48 5.24 3.06 5.24 6.13v10.01c-3.63-5.32-9.73-8.81-16.66-8.81h-1.95zM33.79 252.39c-3.12 0-5.66-2.54-5.66-5.66v-78.12c0-3.12 2.54-5.66 5.66-5.66h113.66c3.12 0 5.66 2.54 5.66 5.66v78.12c0 3.12-2.54 5.66-5.66 5.66H74.48zm69.47 7V278H77.98v-18.61zM74.48 285h13l20.6 193.01c.19 1.8 1.71 3.13 3.48 3.13.12 0 .25-.01.38-.02a3.508 3.508 0 0 0 3.11-3.85L94.51 285h52.42c8.49 0 15.96 6.02 17.76 14.31l19.92 91.51c5.19 23.86 24.13 41.72 48.25 45.52l99.86 15.71v40.45H38.52c-10.02 0-18.18-8.15-18.18-18.18V303.18c0-10.02 8.15-18.18 18.18-18.18z" fill="#ff1515" opacity="1" data-original="#000000" class=""></path><path d="M467.74 122.46a9.895 9.895 0 0 0-6.52-2.44h-34.45c-2.4 0-4.72.87-6.52 2.44l-12.03 10.49a9.843 9.843 0 0 0-3.38 7.43v6.9a4.49 4.49 0 0 0 4.49 4.49h69.33a4.49 4.49 0 0 0 4.49-4.49v-6.9c0-2.85-1.23-5.56-3.38-7.43zM144.68 241.08v-66.79c0-1.78-1.45-3.23-3.23-3.23H66.06c-1.78 0-3.23 1.45-3.23 3.23v66.79c0 1.78 1.45 3.23 3.23 3.23h75.39c1.79 0 3.23-1.45 3.23-3.23z" fill="#ff1515" opacity="1" data-original="#000000" class=""></path></g></svg>